STARTFONT 2.1
FONT -FontForge-Anton-Book-R-Normal--20-190-75-75-P-85-ISO10646-1
SIZE 19 75 75
FONTBOUNDINGBOX 34 36 -5 -7
COMMENT "Generated by fontforge, http://fontforge.sourceforge.net"
COMMENT "Copyright 2011 The Anton Project Authors"
STARTPROPERTIES 40
FOUNDRY "FontForge"
FAMILY_NAME "Anton"
WEIGHT_NAME "Book"
SLANT "R"
SETWIDTH_NAME "Normal"
ADD_STYLE_NAME ""
PIXEL_SIZE 20
POINT_SIZE 190
RESOLUTION_X 75
RESOLUTION_Y 75
SPACING "P"
AVERAGE_WIDTH 85
CHARSET_REGISTRY "ISO10646"
CHARSET_ENCODING "1"
FONTNAME_REGISTRY ""
CHARSET_COLLECTIONS "ISO8859-2 ISO8859-9 ISO8859-4 ISO10646-1"
FONT_NAME "Anton-Regular"
FACE_NAME "Anton Regular"
COPYRIGHT "Copyright 2011 The Anton Project Authors"
FONT_VERSION "2.000"
FONT_ASCENT 16
FONT_DESCENT 4
UNDERLINE_POSITION -3
UNDERLINE_THICKNESS 1
X_HEIGHT 14
CAP_HEIGHT 16
DEFAULT_CHAR 1
RAW_ASCENT 800
RAW_DESCENT 200
NORM_SPACE 5
RELATIVE_WEIGHT 40
RELATIVE_SETWIDTH 50
SUPERSCRIPT_X 0
SUPERSCRIPT_Y 7
SUPERSCRIPT_SIZE 12
SUBSCRIPT_X 0
SUBSCRIPT_Y 1
SUBSCRIPT_SIZE 12
AVG_LOWERCASE_WIDTH 95
AVG_UPPERCASE_WIDTH 94
ENDPROPERTIES
CHARS 658
STARTCHAR NULL.dup1
ENCODING 0
SWIDTH 0 0
DWIDTH 0 0
BBX 1 1 0 0
BITMAP
00
ENDCHAR
STARTCHAR uni0002
ENCODING 2
SWIDTH 293 0
DWIDTH 6 0
BBX 1 1 0 0
BITMAP
00
ENDCHAR
STARTCHAR uni0009
ENCODING 9
SWIDTH 293 0
DWIDTH 6 0
BBX 1 1 0 0
BITMAP
00
ENDCHAR
STARTCHAR uni000A
ENCODING 10
SWIDTH 293 0
DWIDTH 6 0
BBX 1 1 0 0
BITMAP
00
ENDCHAR
STARTCHAR nonmarkingreturn
ENCODING 13
SWIDTH 234 0
DWIDTH 5 0
BBX 1 1 0 0
BITMAP
00
ENDCHAR
STARTCHAR space
ENCODING 32
SWIDTH 234 0
DWIDTH 5 0
BBX 1 1 0 0
BITMAP
00
ENDCHAR
STARTCHAR exclam
ENCODING 33
SWIDTH 229 0
DWIDTH 5 0
BBX 3 17 1 0
BITMAP
E0
E0
E0
E0
E0
E0
E0
E0
E0
E0
C0
C0
C0
00
E0
E0
E0
ENDCHAR
STARTCHAR quotedbl
ENCODING 34
SWIDTH 429 0
DWIDTH 9 0
BBX 8 6 0 11
BITMAP
F7
77
77
67
67
62
ENDCHAR
STARTCHAR numbersign
ENCODING 35
SWIDTH 546 0
DWIDTH 11 0
BBX 11 16 0 0
BITMAP
1CE0
1CC0
1DC0
1DC0
19C0
7FE0
7FE0
3B80
FFC0
FFC0
FFC0
7300
7700
7700
6700
E700
ENDCHAR
STARTCHAR dollar
ENCODING 36
SWIDTH 462 0
DWIDTH 9 0
BBX 9 18 0 -1
BITMAP
0800
1E00
7F00
7F00
7780
F780
7800
7C00
3E00
1F00
0F00
0780
F780
F780
7F80
7F00
1C00
0800
ENDCHAR
STARTCHAR percent
ENCODING 37
SWIDTH 1057 0
DWIDTH 21 0
BBX 21 18 0 0
BITMAP
000E00
3C1C00
7E1C00
7F1C00
E73C00
E73800
E739E0
E73BF0
E777F8
E77738
7F7738
7EF738
1CE738
00E738
01E738
01C7F0
01C3F0
03C1E0
ENDCHAR
STARTCHAR ampersand
ENCODING 38
SWIDTH 505 0
DWIDTH 10 0
BBX 10 16 0 0
BITMAP
0E00
3F00
3F00
3B00
3B00
3F00
3E00
3D80
7FC0
7F80
EF00
E700
E700
7F80
7F80
3BC0
ENDCHAR
STARTCHAR quotesingle
ENCODING 39
SWIDTH 214 0
DWIDTH 4 0
BBX 4 6 0 11
BITMAP
F0
70
70
60
60
60
ENDCHAR
STARTCHAR parenleft
ENCODING 40
SWIDTH 291 0
DWIDTH 6 0
BBX 5 17 0 0
BITMAP
18
38
78
70
70
F0
F0
F0
F0
F0
F0
F0
70
70
78
38
18
ENDCHAR
STARTCHAR parenright
ENCODING 41
SWIDTH 291 0
DWIDTH 6 0
BBX 5 17 0 0
BITMAP
E0
F0
F8
38
38
38
38
38
38
38
38
38
38
78
F8
F0
E0
ENDCHAR
STARTCHAR asterisk
ENCODING 42
SWIDTH 452 0
DWIDTH 9 0
BBX 9 8 0 7
BITMAP
1C00
4900
EB80
3E00
3E00
EB80
4900
1C00
ENDCHAR
STARTCHAR plus
ENCODING 43
SWIDTH 355 0
DWIDTH 7 0
BBX 7 6 0 3
BITMAP
38
FE
FE
FE
38
38
ENDCHAR
STARTCHAR comma
ENCODING 44
SWIDTH 236 0
DWIDTH 5 0
BBX 3 5 1 -2
BITMAP
E0
E0
E0
60
C0
ENDCHAR
STARTCHAR hyphen
ENCODING 45
SWIDTH 311 0
DWIDTH 6 0
BBX 5 3 1 5
BITMAP
F8
F8
F8
ENDCHAR
STARTCHAR period
ENCODING 46
SWIDTH 229 0
DWIDTH 5 0
BBX 3 3 1 0
BITMAP
E0
E0
E0
ENDCHAR
STARTCHAR slash
ENCODING 47
SWIDTH 405 0
DWIDTH 8 0
BBX 8 18 0 0
BITMAP
0F
0F
0E
0E
1E
1E
1C
1C
3C
3C
38
38
38
78
78
70
70
F0
ENDCHAR
STARTCHAR zero
ENCODING 48
SWIDTH 494 0
DWIDTH 10 0
BBX 10 17 0 0
BITMAP
1E00
7F80
7F80
7380
F380
F3C0
F3C0
F3C0
F3C0
F3C0
F3C0
F3C0
F380
F380
7F80
7F80
1E00
ENDCHAR
STARTCHAR one
ENCODING 49
SWIDTH 331 0
DWIDTH 7 0
BBX 6 17 0 0
BITMAP
1C
3C
FC
FC
FC
3C
3C
3C
3C
3C
3C
3C
3C
3C
3C
3C
3C
ENDCHAR
STARTCHAR two
ENCODING 50
SWIDTH 494 0
DWIDTH 10 0
BBX 9 18 1 0
BITMAP
3C00
7F00
FF00
E700
E780
E780
E780
0F00
0F00
1F00
3E00
3C00
7C00
F800
F000
FF80
FF80
FF80
ENDCHAR
STARTCHAR three
ENCODING 51
SWIDTH 494 0
DWIDTH 10 0
BBX 9 17 0 0
BITMAP
3E00
7F80
7F80
F380
F380
0780
0F80
0F00
0F80
0780
F380
F380
F380
F380
7F80
7F00
3E00
ENDCHAR
STARTCHAR four
ENCODING 52
SWIDTH 494 0
DWIDTH 10 0
BBX 10 17 0 0
BITMAP
1F80
1F80
1F80
3F80
3F80
3F80
3780
7780
7780
7780
E780
FFC0
FFC0
FFC0
0780
0780
0780
ENDCHAR
STARTCHAR five
ENCODING 53
SWIDTH 494 0
DWIDTH 10 0
BBX 10 17 0 0
BITMAP
7F80
7F80
7F80
7000
7600
7F80
7F80
7380
7380
03C0
03C0
F3C0
F380
F380
7F80
7F80
3E00
ENDCHAR
STARTCHAR six
ENCODING 54
SWIDTH 494 0
DWIDTH 10 0
BBX 9 17 1 0
BITMAP
3E00
7F00
FF00
E700
E700
E000
EE00
FF00
FF00
E780
E780
E780
E780
E700
FF00
FF00
3C00
ENDCHAR
STARTCHAR seven
ENCODING 55
SWIDTH 494 0
DWIDTH 10 0
BBX 8 17 1 0
BITMAP
FF
FF
FF
0F
0F
0E
1E
1C
3C
3C
38
78
78
78
78
70
F0
ENDCHAR
STARTCHAR eight
ENCODING 56
SWIDTH 494 0
DWIDTH 10 0
BBX 9 18 0 0
BITMAP
3E00
7F80
7F80
7380
F380
F380
7380
7F80
3F00
7F80
7380
F380
F380
F380
7380
7F80
7F00
1E00
ENDCHAR
STARTCHAR nine
ENCODING 57
SWIDTH 504 0
DWIDTH 10 0
BBX 10 17 0 0
BITMAP
1F00
7F80
7F80
7380
73C0
F3C0
73C0
7FC0
7FC0
3FC0
03C0
03C0
73C0
7380
7F80
7F80
1E00
ENDCHAR
STARTCHAR colon
ENCODING 58
SWIDTH 242 0
DWIDTH 5 0
BBX 3 10 1 2
BITMAP
E0
E0
E0
00
00
00
00
E0
E0
E0
ENDCHAR
STARTCHAR semicolon
ENCODING 59
SWIDTH 245 0
DWIDTH 5 0
BBX 3 13 1 0
BITMAP
E0
E0
E0
00
00
00
00
00
E0
E0
E0
60
E0
ENDCHAR
STARTCHAR less
ENCODING 60
SWIDTH 321 0
DWIDTH 6 0
BBX 6 11 0 2
BITMAP
04
0C
3C
FC
F0
E0
F0
FC
3C
1C
04
ENDCHAR
STARTCHAR equal
ENCODING 61
SWIDTH 311 0
DWIDTH 6 0
BBX 5 6 1 5
BITMAP
F8
F8
F8
F8
F8
F8
ENDCHAR
STARTCHAR greater
ENCODING 62
SWIDTH 321 0
DWIDTH 6 0
BBX 5 11 1 2
BITMAP
80
C0
E0
F8
78
18
78
F8
F0
C0
80
ENDCHAR
STARTCHAR question
ENCODING 63
SWIDTH 492 0
DWIDTH 10 0
BBX 10 17 0 0
BITMAP
3F00
7F80
7F80
F380
F3C0
F3C0
0780
0780
7F80
7F00
7800
7800
0000
0000
7800
7800
7800
ENDCHAR
STARTCHAR at
ENCODING 64
SWIDTH 864 0
DWIDTH 17 0
BBX 16 20 1 -3
BITMAP
07E0
1FF8
3FFC
781C
700E
E366
E7E6
EF67
EE67
CE67
CE67
CE67
EEF6
EFFE
E77E
7318
7C00
3FE0
1FE0
03C0
ENDCHAR
STARTCHAR A
ENCODING 65
SWIDTH 485 0
DWIDTH 10 0
BBX 9 17 0 0
BITMAP
3F00
3F00
3F00
3F00
3F00
7F00
7700
7780
7780
7380
7380
7F80
7F80
7F80
7380
F380
F380
ENDCHAR
STARTCHAR B
ENCODING 66
SWIDTH 479 0
DWIDTH 10 0
BBX 8 17 1 0
BITMAP
FE
FF
FF
E7
E7
E7
FF
FC
FF
E7
E7
E7
E7
E7
FF
FE
FE
ENDCHAR
STARTCHAR C
ENCODING 67
SWIDTH 474 0
DWIDTH 9 0
BBX 8 17 1 0
BITMAP
3C
FE
FF
E7
E7
E7
E7
E0
E0
E0
E7
E7
E7
E7
FF
FE
3C
ENDCHAR
STARTCHAR D
ENCODING 68
SWIDTH 493 0
DWIDTH 10 0
BBX 8 17 1 0
BITMAP
FE
FF
FF
E7
E7
E7
E7
E7
E7
E7
E7
E7
E7
E7
FF
FF
FE
ENDCHAR
STARTCHAR E
ENCODING 69
SWIDTH 412 0
DWIDTH 8 0
BBX 7 17 1 0
BITMAP
FE
FE
FE
E0
E0
E0
FE
FE
FE
E0
E0
E0
E0
E0
FE
FE
FE
ENDCHAR
STARTCHAR F
ENCODING 70
SWIDTH 399 0
DWIDTH 8 0
BBX 7 17 1 0
BITMAP
FE
FE
FE
E0
E0
E0
FC
FC
FC
E0
E0
E0
E0
E0
E0
E0
E0
ENDCHAR
STARTCHAR G
ENCODING 71
SWIDTH 485 0
DWIDTH 10 0
BBX 8 17 1 0
BITMAP
3C
FE
FF
E7
E7
E7
E0
EF
EF
EF
E7
E7
E7
E7
FF
FF
7B
ENDCHAR
STARTCHAR H
ENCODING 72
SWIDTH 499 0
DWIDTH 10 0
BBX 8 17 1 0
BITMAP
E7
E7
E7
E7
E7
E7
FF
FF
FF
E7
E7
E7
E7
E7
E7
E7
E7
ENDCHAR
STARTCHAR I
ENCODING 73
SWIDTH 227 0
DWIDTH 5 0
BBX 3 17 1 0
BITMAP
E0
E0
E0
E0
E0
E0
E0
E0
E0
E0
E0
E0
E0
E0
E0
E0
E0
ENDCHAR
STARTCHAR J
ENCODING 74
SWIDTH 466 0
DWIDTH 9 0
BBX 9 17 0 0
BITMAP
0780
0780
0780
0780
0780
0780
0780
0780
0780
F780
F780
F780
F780
F780
7F00
7F00
3E00
ENDCHAR
STARTCHAR K
ENCODING 75
SWIDTH 472 0
DWIDTH 9 0
BBX 9 17 1 0
BITMAP
E700
EF00
EF00
EE00
EE00
FE00
FE00
FC00
FC00
FE00
EE00
EE00
EE00
EF00
EF00
E700
E780
ENDCHAR
STARTCHAR L
ENCODING 76
SWIDTH 397 0
DWIDTH 8 0
BBX 7 17 1 0
BITMAP
E0
E0
E0
E0
E0
E0
E0
E0
E0
E0
E0
E0
E0
E0
FE
FE
FE
ENDCHAR
STARTCHAR M
ENCODING 77
SWIDTH 746 0
DWIDTH 15 0
BBX 13 17 1 0
BITMAP
F8F8
F8F8
F8F8
F9F8
FDF8
FDF8
FDF8
FDF8
FDB8
EDB8
EFB8
EFB8
EFB8
EFB8
E738
E738
E738
ENDCHAR
STARTCHAR N
ENCODING 78
SWIDTH 498 0
DWIDTH 10 0
BBX 8 17 1 0
BITMAP
E7
F7
F7
F7
F7
F7
FF
FF
FF
FF
EF
EF
EF
EF
EF
E7
E7
ENDCHAR
STARTCHAR O
ENCODING 79
SWIDTH 486 0
DWIDTH 10 0
BBX 8 17 1 0
BITMAP
3C
FE
FF
E7
E7
E7
E7
E7
E7
E7
E7
E7
E7
E7
FF
FE
3C
ENDCHAR
STARTCHAR P
ENCODING 80
SWIDTH 472 0
DWIDTH 9 0
BBX 8 17 1 0
BITMAP
FC
FE
FF
E7
E7
E7
E7
FF
FE
FE
E0
E0
E0
E0
E0
E0
E0
ENDCHAR
STARTCHAR Q
ENCODING 81
SWIDTH 494 0
DWIDTH 10 0
BBX 9 19 1 -2
BITMAP
7C00
FE00
FF00
EF00
E700
E700
E700
E700
E700
E700
E700
E700
E700
EF00
FF00
FE00
7F80
0300
0100
ENDCHAR
STARTCHAR R
ENCODING 82
SWIDTH 477 0
DWIDTH 10 0
BBX 8 17 1 0
BITMAP
FE
FF
FF
E7
E7
E7
FF
FE
FE
EF
E7
E7
E7
E7
E7
E7
E7
ENDCHAR
STARTCHAR S
ENCODING 83
SWIDTH 461 0
DWIDTH 9 0
BBX 9 17 0 0
BITMAP
3E00
7F00
7F00
F780
F780
7800
7C00
3E00
3F00
1F00
0F80
F780
F780
F780
7F00
7F00
3E00
ENDCHAR
STARTCHAR T
ENCODING 84
SWIDTH 396 0
DWIDTH 8 0
BBX 8 17 0 0
BITMAP
FF
FF
FF
3C
3C
3C
3C
3C
3C
3C
3C
3C
3C
3C
3C
3C
3C
ENDCHAR
STARTCHAR U
ENCODING 85
SWIDTH 474 0
DWIDTH 9 0
BBX 8 17 1 0
BITMAP
E7
E7
E7
E7
E7
E7
E7
E7
E7
E7
E7
E7
E7
E7
FF
FE
7C
ENDCHAR
STARTCHAR V
ENCODING 86
SWIDTH 469 0
DWIDTH 9 0
BBX 9 17 0 0
BITMAP
F380
F380
7380
7380
7780
7700
7700
7700
7700
7F00
3F00
3F00
3F00
3E00
3E00
3E00
3E00
ENDCHAR
STARTCHAR W
ENCODING 87
SWIDTH 712 0
DWIDTH 14 0
BBX 14 17 0 0
BITMAP
F39C
F7BC
77BC
77BC
77B8
77B8
77B8
77B8
77B8
77F8
7FF8
3FF8
3EF8
3EF0
3EF0
3CF0
3CF0
ENDCHAR
STARTCHAR X
ENCODING 88
SWIDTH 484 0
DWIDTH 10 0
BBX 9 17 0 0
BITMAP
7380
7780
7780
7F00
7F00
3F00
3F00
3F00
3F00
3F00
3F00
7F00
7F00
7780
7380
7380
F380
ENDCHAR
STARTCHAR Y
ENCODING 89
SWIDTH 446 0
DWIDTH 9 0
BBX 9 17 0 0
BITMAP
F780
F700
7700
7700
7700
7600
3E00
3E00
3E00
3E00
1C00
1C00
1C00
1C00
1C00
1C00
1C00
ENDCHAR
STARTCHAR Z
ENCODING 90
SWIDTH 410 0
DWIDTH 8 0
BBX 8 17 0 0
BITMAP
7F
7F
7F
0F
0E
1E
1E
1C
3C
38
38
78
70
70
FF
FF
FF
ENDCHAR
STARTCHAR bracketleft
ENCODING 91
SWIDTH 318 0
DWIDTH 6 0
BBX 5 17 1 0
BITMAP
F8
F8
F8
E0
E0
E0
E0
E0
E0
E0
E0
E0
E0
E0
F8
F8
F8
ENDCHAR
STARTCHAR backslash
ENCODING 92
SWIDTH 405 0
DWIDTH 8 0
BBX 8 18 0 0
BITMAP
F0
70
70
78
78
78
38
38
3C
3C
1C
1C
1E
1E
0E
0E
0E
0F
ENDCHAR
STARTCHAR bracketright
ENCODING 93
SWIDTH 318 0
DWIDTH 6 0
BBX 6 17 0 0
BITMAP
FC
FC
FC
3C
3C
3C
3C
3C
3C
3C
3C
3C
3C
3C
FC
FC
FC
ENDCHAR
STARTCHAR asciicircum
ENCODING 94
SWIDTH 474 0
DWIDTH 9 0
BBX 9 9 0 4
BITMAP
1E00
3E00
3E00
3F00
3F00
7700
7700
7780
F380
ENDCHAR
STARTCHAR underscore
ENCODING 95
SWIDTH 365 0
DWIDTH 7 0
BBX 7 3 0 -4
BITMAP
FE
FE
FE
ENDCHAR
STARTCHAR grave
ENCODING 96
SWIDTH 317 0
DWIDTH 6 0
BBX 4 5 1 15
BITMAP
80
C0
F0
F0
10
ENDCHAR
STARTCHAR a
ENCODING 97
SWIDTH 483 0
DWIDTH 10 0
BBX 9 15 0 0
BITMAP
3E00
7F00
7F80
7780
7780
0780
1F80
7F80
7780
F780
F780
F780
7F80
7B80
3B80
ENDCHAR
STARTCHAR b
ENCODING 98
SWIDTH 501 0
DWIDTH 10 0
BBX 8 18 1 0
BITMAP
E0
E0
E0
EE
FF
FF
E7
E7
E7
E7
E7
E7
E7
E7
E7
FF
FF
EE
ENDCHAR
STARTCHAR c
ENCODING 99
SWIDTH 491 0
DWIDTH 10 0
BBX 8 15 1 0
BITMAP
3C
FF
FF
E7
E7
E7
E0
E0
E0
E7
E7
E7
FF
FF
3C
ENDCHAR
STARTCHAR d
ENCODING 100
SWIDTH 498 0
DWIDTH 10 0
BBX 8 18 1 0
BITMAP
07
07
07
77
FF
FF
E7
E7
E7
E7
E7
E7
E7
E7
E7
FF
FF
77
ENDCHAR
STARTCHAR e
ENCODING 101
SWIDTH 488 0
DWIDTH 10 0
BBX 8 15 1 0
BITMAP
3C
FF
FF
E7
E7
E7
FF
FF
E0
E7
E7
E7
FF
FE
7C
ENDCHAR
STARTCHAR f
ENCODING 102
SWIDTH 280 0
DWIDTH 6 0
BBX 5 18 0 0
BITMAP
38
78
78
70
F8
F8
F8
78
78
78
78
78
78
78
78
78
78
78
ENDCHAR
STARTCHAR g
ENCODING 103
SWIDTH 504 0
DWIDTH 10 0
BBX 9 17 0 -2
BITMAP
3B80
7F80
7F80
7380
7380
7380
7380
7380
7380
7380
7F80
7F80
3B80
4380
7F80
FF80
3E00
ENDCHAR
STARTCHAR h
ENCODING 104
SWIDTH 505 0
DWIDTH 10 0
BBX 8 18 1 0
BITMAP
E0
E0
E0
EE
FF
FF
E7
E7
E7
E7
E7
E7
E7
E7
E7
E7
E7
E7
ENDCHAR
STARTCHAR i
ENCODING 105
SWIDTH 243 0
DWIDTH 5 0
BBX 3 19 1 0
BITMAP
E0
E0
E0
00
E0
E0
E0
E0
E0
E0
E0
E0
E0
E0
E0
E0
E0
E0
E0
ENDCHAR
STARTCHAR j
ENCODING 106
SWIDTH 263 0
DWIDTH 5 0
BBX 5 21 0 -2
BITMAP
78
78
78
00
78
78
78
78
78
78
78
78
78
78
78
78
78
78
F0
F0
60
ENDCHAR
STARTCHAR k
ENCODING 107
SWIDTH 491 0
DWIDTH 10 0
BBX 9 18 1 0
BITMAP
E000
E000
E000
E700
EF00
EF00
EE00
FE00
FE00
FC00
FE00
FE00
EE00
EF00
EF00
E700
E780
E780
ENDCHAR
STARTCHAR l
ENCODING 108
SWIDTH 248 0
DWIDTH 5 0
BBX 3 18 1 0
BITMAP
E0
E0
E0
E0
E0
E0
E0
E0
E0
E0
E0
E0
E0
E0
E0
E0
E0
E0
ENDCHAR
STARTCHAR m
ENCODING 109
SWIDTH 758 0
DWIDTH 15 0
BBX 14 15 1 0
BITMAP
EE70
FFF8
FFF8
E738
E73C
E738
E738
E738
E738
E738
E738
E738
E738
E738
E738
ENDCHAR
STARTCHAR n
ENCODING 110
SWIDTH 499 0
DWIDTH 10 0
BBX 8 15 1 0
BITMAP
EE
FF
FF
E7
E7
E7
E7
E7
E7
E7
E7
E7
E7
E7
E7
ENDCHAR
STARTCHAR o
ENCODING 111
SWIDTH 497 0
DWIDTH 10 0
BBX 8 15 1 0
BITMAP
3C
7E
FF
E7
E7
E7
E7
E7
E7
E7
E7
E7
FF
FF
3C
ENDCHAR
STARTCHAR p
ENCODING 112
SWIDTH 500 0
DWIDTH 10 0
BBX 8 18 1 -3
BITMAP
EE
FF
FF
E7
E7
E7
E7
E7
E7
E7
E7
E7
FF
FF
EE
E0
E0
E0
ENDCHAR
STARTCHAR q
ENCODING 113
SWIDTH 500 0
DWIDTH 10 0
BBX 8 18 1 -3
BITMAP
77
FF
FF
E7
E7
E7
E7
E7
E7
E7
E7
E7
FF
FF
77
07
07
07
ENDCHAR
STARTCHAR r
ENCODING 114
SWIDTH 344 0
DWIDTH 7 0
BBX 6 15 1 0
BITMAP
EC
FC
FC
E0
E0
E0
E0
E0
E0
E0
E0
E0
E0
E0
E0
ENDCHAR
STARTCHAR s
ENCODING 115
SWIDTH 475 0
DWIDTH 10 0
BBX 9 15 0 0
BITMAP
3E00
7F00
7F80
F780
F780
7C00
7E00
1F00
0F80
F780
F780
F780
7F80
7F00
3E00
ENDCHAR
STARTCHAR t
ENCODING 116
SWIDTH 305 0
DWIDTH 6 0
BBX 6 17 0 0
BITMAP
78
78
FC
FC
FC
78
78
78
78
78
78
78
78
78
7C
7C
3C
ENDCHAR
STARTCHAR u
ENCODING 117
SWIDTH 499 0
DWIDTH 10 0
BBX 8 15 1 0
BITMAP
E7
E7
E7
E7
E7
E7
E7
E7
E7
E7
E7
E7
FF
FF
77
ENDCHAR
STARTCHAR v
ENCODING 118
SWIDTH 461 0
DWIDTH 9 0
BBX 9 15 0 0
BITMAP
F780
F780
7780
7700
7700
7700
7700
7700
3700
3E00
3E00
3E00
3E00
3E00
3E00
ENDCHAR
STARTCHAR w
ENCODING 119
SWIDTH 696 0
DWIDTH 14 0
BBX 13 15 0 0
BITMAP
F738
77B8
77B8
77B8
77B8
77B8
77B8
77F8
7FF0
3FF0
3EF0
3EF0
3CF0
3CF0
3CF0
ENDCHAR
STARTCHAR x
ENCODING 120
SWIDTH 459 0
DWIDTH 9 0
BBX 9 15 0 0
BITMAP
F380
7300
7B00
3F00
3E00
3E00
1E00
1C00
3E00
3E00
3F00
7F00
7700
6780
E780
ENDCHAR
STARTCHAR y
ENCODING 121
SWIDTH 461 0
DWIDTH 9 0
BBX 9 17 0 -2
BITMAP
F380
F780
7780
7700
7700
7700
7700
7700
3600
3600
3600
3E00
3E00
3E00
3C00
FC00
FC00
ENDCHAR
STARTCHAR z
ENCODING 122
SWIDTH 386 0
DWIDTH 8 0
BBX 8 15 0 0
BITMAP
FF
FF
FE
0E
1E
1C
1C
3C
38
78
78
70
FF
FF
FF
ENDCHAR
STARTCHAR braceleft
ENCODING 123
SWIDTH 340 0
DWIDTH 7 0
BBX 6 20 0 -2
BITMAP
1C
3C
3C
38
38
38
38
38
78
F0
F0
78
38
38
38
38
38
3C
3C
1C
ENDCHAR
STARTCHAR bar
ENCODING 124
SWIDTH 216 0
DWIDTH 4 0
BBX 3 20 1 -1
BITMAP
E0
E0
E0
E0
E0
E0
E0
E0
E0
E0
E0
E0
E0
E0
E0
E0
E0
E0
E0
E0
ENDCHAR
STARTCHAR braceright
ENCODING 125
SWIDTH 340 0
DWIDTH 7 0
BBX 7 20 0 -2
BITMAP
F0
F8
F8
38
38
38
38
38
38
1E
1E
3C
38
38
38
38
38
F8
F8
F0
ENDCHAR
STARTCHAR asciitilde
ENCODING 126
SWIDTH 493 0
DWIDTH 10 0
BBX 10 4 0 8
BITMAP
3880
7FC0
FF80
4780
ENDCHAR
STARTCHAR uni00A0
ENCODING 160
SWIDTH 234 0
DWIDTH 5 0
BBX 1 1 0 0
BITMAP
00
ENDCHAR
STARTCHAR exclamdown
ENCODING 161
SWIDTH 227 0
DWIDTH 5 0
BBX 3 17 1 -1
BITMAP
E0
E0
E0
00
C0
C0
C0
E0
E0
E0
E0
E0
E0
E0
E0
E0
E0
ENDCHAR
STARTCHAR cent
ENCODING 162
SWIDTH 481 0
DWIDTH 10 0
BBX 9 18 0 -2
BITMAP
0C00
0C00
3F00
7F80
7380
7380
F380
F380
F000
F000
F380
F380
F380
7380
7F80
3F00
1C00
0C00
ENDCHAR
STARTCHAR sterling
ENCODING 163
SWIDTH 474 0
DWIDTH 9 0
BBX 9 16 0 0
BITMAP
0E00
3F00
7F80
7B80
7B80
7800
3800
FF00
FF00
FF00
3C00
3C00
3800
FF80
FF80
FF80
ENDCHAR
STARTCHAR currency
ENCODING 164
SWIDTH 488 0
DWIDTH 10 0
BBX 9 8 0 5
BITMAP
7F80
FF80
6380
6180
6180
6380
FF80
7F80
ENDCHAR
STARTCHAR yen
ENCODING 165
SWIDTH 463 0
DWIDTH 9 0
BBX 9 17 0 0
BITMAP
F780
F700
7700
7700
7700
7600
3E00
3E00
3E00
3E00
7F00
7F00
7F00
7F00
1C00
1C00
1C00
ENDCHAR
STARTCHAR brokenbar
ENCODING 166
SWIDTH 222 0
DWIDTH 4 0
BBX 3 20 1 -1
BITMAP
E0
E0
E0
E0
E0
E0
E0
E0
E0
00
00
E0
E0
E0
E0
E0
E0
E0
E0
E0
ENDCHAR
STARTCHAR section
ENCODING 167
SWIDTH 449 0
DWIDTH 9 0
BBX 9 16 0 0
BITMAP
3E00
7F00
7F00
7380
7000
3C00
7F00
6700
7380
7F00
1E00
0F00
F780
7F00
7F00
3E00
ENDCHAR
STARTCHAR dieresis
ENCODING 168
SWIDTH 477 0
DWIDTH 10 0
BBX 8 3 1 16
BITMAP
EF
EF
EF
ENDCHAR
STARTCHAR copyright
ENCODING 169
SWIDTH 675 0
DWIDTH 14 0
BBX 13 13 0 2
BITMAP
0F80
18E0
3730
6790
4D98
CD88
CC08
CD88
4D98
6798
2730
3860
0FC0
ENDCHAR
STARTCHAR ordfeminine
ENCODING 170
SWIDTH 392 0
DWIDTH 8 0
BBX 7 12 0 8
BITMAP
3C
7E
7E
6E
0E
3E
7E
6E
EE
EE
7E
76
ENDCHAR
STARTCHAR guillemotleft
ENCODING 171
SWIDTH 578 0
DWIDTH 12 0
BBX 11 9 0 3
BITMAP
0820
38E0
FBE0
FBE0
C300
F3C0
FBE0
38E0
0860
ENDCHAR
STARTCHAR logicalnot
ENCODING 172
SWIDTH 404 0
DWIDTH 8 0
BBX 7 5 0 5
BITMAP
FE
FE
0E
0E
0E
ENDCHAR
STARTCHAR uni00AD
ENCODING 173
SWIDTH 293 0
DWIDTH 6 0
BBX 5 3 1 5
BITMAP
F8
F8
F8
ENDCHAR
STARTCHAR registered
ENCODING 174
SWIDTH 675 0
DWIDTH 14 0
BBX 13 13 0 2
BITMAP
0F80
18E0
37B0
6790
4598
C588
C788
C588
4598
6598
25B0
3860
0FC0
ENDCHAR
STARTCHAR macron
ENCODING 175
SWIDTH 833 0
DWIDTH 17 0
BBX 6 2 5 16
BITMAP
FC
FC
ENDCHAR
STARTCHAR degree
ENCODING 176
SWIDTH 389 0
DWIDTH 8 0
BBX 7 7 0 9
BITMAP
3C
7E
66
E6
66
7E
3C
ENDCHAR
STARTCHAR plusminus
ENCODING 177
SWIDTH 358 0
DWIDTH 7 0
BBX 7 10 0 0
BITMAP
38
FE
FE
FE
38
38
00
7C
7C
7C
ENDCHAR
STARTCHAR uni00B2
ENCODING 178
SWIDTH 302 0
DWIDTH 6 0
BBX 6 10 0 7
BITMAP
78
78
EC
FC
18
38
70
60
7C
FC
ENDCHAR
STARTCHAR uni00B3
ENCODING 179
SWIDTH 298 0
DWIDTH 6 0
BBX 5 10 0 7
BITMAP
78
78
D8
38
38
18
D8
D8
78
30
ENDCHAR
STARTCHAR acute
ENCODING 180
SWIDTH 317 0
DWIDTH 6 0
BBX 5 5 1 15
BITMAP
08
38
F8
F8
80
ENDCHAR
STARTCHAR uni00B5
ENCODING 181
SWIDTH 490 0
DWIDTH 10 0
BBX 8 17 1 -2
BITMAP
E7
E7
E7
E7
E7
E7
E7
E7
E7
E7
E7
E7
FF
FF
F7
E0
E0
ENDCHAR
STARTCHAR paragraph
ENCODING 182
SWIDTH 498 0
DWIDTH 10 0
BBX 9 16 0 0
BITMAP
1F80
7F80
7F80
FD80
FD80
FD80
7D80
3D80
0D80
0D80
0D80
0D80
0D80
0D80
0D80
0D80
ENDCHAR
STARTCHAR periodcentered
ENCODING 183
SWIDTH 234 0
DWIDTH 5 0
BBX 3 3 1 7
BITMAP
E0
E0
E0
ENDCHAR
STARTCHAR cedilla
ENCODING 184
SWIDTH 496 0
DWIDTH 10 0
BBX 4 6 3 -6
BITMAP
60
30
30
F0
F0
F0
ENDCHAR
STARTCHAR uni00B9
ENCODING 185
SWIDTH 206 0
DWIDTH 4 0
BBX 4 9 0 8
BITMAP
30
F0
F0
70
70
70
70
70
70
ENDCHAR
STARTCHAR ordmasculine
ENCODING 186
SWIDTH 397 0
DWIDTH 8 0
BBX 7 12 0 8
BITMAP
3C
7E
7E
E6
E6
E6
E6
E6
E6
7E
7E
3C
ENDCHAR
STARTCHAR guillemotright
ENCODING 187
SWIDTH 578 0
DWIDTH 12 0
BBX 10 9 1 3
BITMAP
8400
E700
FFC0
FFC0
38C0
FBC0
FFC0
E780
8600
ENDCHAR
STARTCHAR onequarter
ENCODING 188
SWIDTH 814 0
DWIDTH 16 0
BBX 14 18 1 0
BITMAP
0070
30E0
F0E0
B0C0
31C0
31C0
3180
3380
3300
3338
0738
0638
0678
0678
0C58
0CFC
08FC
1818
ENDCHAR
STARTCHAR onehalf
ENCODING 189
SWIDTH 861 0
DWIDTH 17 0
BBX 15 19 1 -1
BITMAP
0070
30E0
F0E0
B0C0
31C0
31C0
3180
3380
3300
333C
033E
0636
0636
060C
0C1C
0C18
0C30
183E
003E
ENDCHAR
STARTCHAR threequarters
ENCODING 190
SWIDTH 854 0
DWIDTH 17 0
BBX 15 18 1 0
BITMAP
0030
7870
7870
7860
38E0
38C0
18C0
DDC0
5980
799C
339C
033C
033C
073C
066C
067E
047E
0C0C
ENDCHAR
STARTCHAR questiondown
ENCODING 191
SWIDTH 493 0
DWIDTH 10 0
BBX 9 18 0 -1
BITMAP
0780
0780
0780
0000
0000
0780
0780
3F80
7F80
7800
7800
F000
F380
F380
7380
7F80
7F80
3E00
ENDCHAR
STARTCHAR Agrave
ENCODING 192
SWIDTH 485 0
DWIDTH 10 0
BBX 9 23 0 0
BITMAP
2000
1800
1E00
1E00
0200
0000
3F00
3F00
3F00
3F00
3F00
7F00
7700
7780
7780
7380
7380
7F80
7F80
7F80
7380
F380
F380
ENDCHAR
STARTCHAR Aacute
ENCODING 193
SWIDTH 485 0
DWIDTH 10 0
BBX 9 23 0 0
BITMAP
0200
0E00
1E00
1E00
2000
0000
3F00
3F00
3F00
3F00
3F00
7F00
7700
7780
7780
7380
7380
7F80
7F80
7F80
7380
F380
F380
ENDCHAR
STARTCHAR Acircumflex
ENCODING 194
SWIDTH 485 0
DWIDTH 10 0
BBX 9 23 0 0
BITMAP
1E00
3F00
7700
7380
8000
0000
3F00
3F00
3F00
3F00
3F00
7F00
7700
7780
7780
7380
7380
7F80
7F80
7F80
7380
F380
F380
ENDCHAR
STARTCHAR Atilde
ENCODING 195
SWIDTH 485 0
DWIDTH 10 0
BBX 9 23 0 0
BITMAP
3100
7F80
7F00
2700
0000
0000
3F00
3F00
3F00
3F00
3F00
7F00
7700
7780
7780
7380
7380
7F80
7F80
7F80
7380
F380
F380
ENDCHAR
STARTCHAR Adieresis
ENCODING 196
SWIDTH 485 0
DWIDTH 10 0
BBX 9 22 0 0
BITMAP
7780
7780
7780
0000
0000
3F00
3F00
3F00
3F00
3F00
7F00
7700
7780
7780
7380
7380
7F80
7F80
7F80
7380
F380
F380
ENDCHAR
STARTCHAR Aring
ENCODING 197
SWIDTH 485 0
DWIDTH 10 0
BBX 9 26 0 0
BITMAP
1E00
3F00
7300
6300
7300
3F00
1E00
0000
0000
3F00
3F00
3F00
3F00
3F00
7F00
7700
7780
7780
7380
7380
7F80
7F80
7F80
7380
F380
F380
ENDCHAR
STARTCHAR AE
ENCODING 198
SWIDTH 640 0
DWIDTH 13 0
BBX 12 17 0 0
BITMAP
1FF0
3FF0
3FF0
3B80
3B80
3B80
3B80
7BF0
7BF0
7FF0
7F80
7F80
F380
F380
F3F0
F3F0
E3F0
ENDCHAR
STARTCHAR Ccedilla
ENCODING 199
SWIDTH 474 0
DWIDTH 9 0
BBX 8 23 1 -6
BITMAP
3C
FE
FF
E7
E7
E7
E7
E0
E0
E0
E7
E7
E7
E7
FF
FF
7E
18
0C
0C
0C
3C
3C
ENDCHAR
STARTCHAR Egrave
ENCODING 200
SWIDTH 412 0
DWIDTH 8 0
BBX 7 23 1 0
BITMAP
40
70
7C
7C
04
00
FE
FE
FE
E0
E0
E0
FE
FE
FE
E0
E0
E0
E0
E0
FE
FE
FE
ENDCHAR
STARTCHAR Eacute
ENCODING 201
SWIDTH 412 0
DWIDTH 8 0
BBX 7 23 1 0
BITMAP
04
1C
7C
7C
40
00
FE
FE
FE
E0
E0
E0
FE
FE
FE
E0
E0
E0
E0
E0
FE
FE
FE
ENDCHAR
STARTCHAR Ecircumflex
ENCODING 202
SWIDTH 412 0
DWIDTH 8 0
BBX 9 23 0 0
BITMAP
3E00
7E00
7700
F780
0000
0000
7F00
7F00
7F00
7000
7000
7000
7F00
7F00
7F00
7000
7000
7000
7000
7000
7F00
7F00
7F00
ENDCHAR
STARTCHAR Edieresis
ENCODING 203
SWIDTH 412 0
DWIDTH 8 0
BBX 8 22 0 0
BITMAP
F7
F7
F7
00
00
7F
7F
7F
70
70
70
7F
7F
7F
70
70
70
70
70
7F
7F
7F
ENDCHAR
STARTCHAR Igrave
ENCODING 204
SWIDTH 227 0
DWIDTH 5 0
BBX 5 23 0 0
BITMAP
80
E0
F8
F8
08
00
70
70
70
70
70
70
70
70
70
70
70
70
70
70
70
70
70
ENDCHAR
STARTCHAR Iacute
ENCODING 205
SWIDTH 227 0
DWIDTH 5 0
BBX 5 23 0 0
BITMAP
08
38
F8
F8
80
00
70
70
70
70
70
70
70
70
70
70
70
70
70
70
70
70
70
ENDCHAR
STARTCHAR Icircumflex
ENCODING 206
SWIDTH 227 0
DWIDTH 5 0
BBX 9 23 -2 0
BITMAP
3E00
7E00
7700
F780
0000
0000
1C00
1C00
1C00
1C00
1C00
1C00
1C00
1C00
1C00
1C00
1C00
1C00
1C00
1C00
1C00
1C00
1C00
ENDCHAR
STARTCHAR Idieresis
ENCODING 207
SWIDTH 227 0
DWIDTH 5 0
BBX 8 22 -2 0
BITMAP
F7
F7
F7
00
00
1C
1C
1C
1C
1C
1C
1C
1C
1C
1C
1C
1C
1C
1C
1C
1C
1C
ENDCHAR
STARTCHAR Eth
ENCODING 208
SWIDTH 493 0
DWIDTH 10 0
BBX 9 17 0 0
BITMAP
7F00
7F80
7F80
7380
7380
7380
FB80
FB80
FB80
7380
7380
7380
7380
7380
7F80
7F80
7F00
ENDCHAR
STARTCHAR Ntilde
ENCODING 209
SWIDTH 498 0
DWIDTH 10 0
BBX 8 23 1 0
BITMAP
32
7F
FF
4E
00
00
E7
F7
F7
F7
F7
F7
FF
FF
FF
FF
EF
EF
EF
EF
EF
E7
E7
ENDCHAR
STARTCHAR Ograve
ENCODING 210
SWIDTH 486 0
DWIDTH 10 0
BBX 8 23 1 0
BITMAP
40
30
3C
3C
04
00
3C
FE
FF
E7
E7
E7
E7
E7
E7
E7
E7
E7
E7
E7
FF
FE
3C
ENDCHAR
STARTCHAR Oacute
ENCODING 211
SWIDTH 486 0
DWIDTH 10 0
BBX 8 23 1 0
BITMAP
04
0C
3C
3C
40
00
3C
FE
FF
E7
E7
E7
E7
E7
E7
E7
E7
E7
E7
E7
FF
FE
3C
ENDCHAR
STARTCHAR Ocircumflex
ENCODING 212
SWIDTH 486 0
DWIDTH 10 0
BBX 8 23 1 0
BITMAP
3C
7E
EE
E7
00
00
3C
FE
FF
E7
E7
E7
E7
E7
E7
E7
E7
E7
E7
E7
FF
FE
3C
ENDCHAR
STARTCHAR Otilde
ENCODING 213
SWIDTH 486 0
DWIDTH 10 0
BBX 8 23 1 0
BITMAP
62
FF
FE
4E
00
00
3C
FE
FF
E7
E7
E7
E7
E7
E7
E7
E7
E7
E7
E7
FF
FE
3C
ENDCHAR
STARTCHAR Odieresis
ENCODING 214
SWIDTH 486 0
DWIDTH 10 0
BBX 8 22 1 0
BITMAP
EF
EF
EF
00
00
3C
FE
FF
E7
E7
E7
E7
E7
E7
E7
E7
E7
E7
E7
FF
FE
3C
ENDCHAR
STARTCHAR multiply
ENCODING 215
SWIDTH 347 0
DWIDTH 7 0
BBX 7 6 0 3
BITMAP
6C
FE
38
7C
EE
28
ENDCHAR
STARTCHAR Oslash
ENCODING 216
SWIDTH 482 0
DWIDTH 10 0
BBX 8 21 1 -2
BITMAP
02
02
7E
FE
FF
E7
E7
E7
E7
E7
E7
E7
E7
E7
E7
E7
FF
FE
7C
C0
40
ENDCHAR
STARTCHAR Ugrave
ENCODING 217
SWIDTH 474 0
DWIDTH 9 0
BBX 8 23 1 0
BITMAP
40
70
7C
7C
04
00
E7
E7
E7
E7
E7
E7
E7
E7
E7
E7
E7
E7
E7
E7
FF
FE
7C
ENDCHAR
STARTCHAR Uacute
ENCODING 218
SWIDTH 474 0
DWIDTH 9 0
BBX 8 23 1 0
BITMAP
04
1C
7C
7C
40
00
E7
E7
E7
E7
E7
E7
E7
E7
E7
E7
E7
E7
E7
E7
FF
FE
7C
ENDCHAR
STARTCHAR Ucircumflex
ENCODING 219
SWIDTH 474 0
DWIDTH 9 0
BBX 9 23 0 0
BITMAP
3E00
3F00
7700
F780
0000
0000
7380
7380
7380
7380
7380
7380
7380
7380
7380
7380
7380
7380
7380
7380
7F80
7F00
3E00
ENDCHAR
STARTCHAR Udieresis
ENCODING 220
SWIDTH 474 0
DWIDTH 9 0
BBX 8 22 1 0
BITMAP
EF
EF
EF
00
00
E7
E7
E7
E7
E7
E7
E7
E7
E7
E7
E7
E7
E7
E7
FF
FE
7C
ENDCHAR
STARTCHAR Yacute
ENCODING 221
SWIDTH 446 0
DWIDTH 9 0
BBX 9 23 0 0
BITMAP
0200
0E00
3E00
3E00
2000
0000
F780
F700
7700
7700
7700
7600
3E00
3E00
3E00
3E00
1C00
1C00
1C00
1C00
1C00
1C00
1C00
ENDCHAR
STARTCHAR Thorn
ENCODING 222
SWIDTH 462 0
DWIDTH 9 0
BBX 8 17 1 0
BITMAP
E0
E0
FC
FE
FF
EF
E7
E7
E7
EF
FF
FE
FC
E0
E0
E0
E0
ENDCHAR
STARTCHAR germandbls
ENCODING 223
SWIDTH 492 0
DWIDTH 10 0
BBX 8 17 1 0
BITMAP
7C
FE
FF
EF
EF
EF
EE
EE
EF
E7
E7
E7
E7
E7
EF
EF
EE
ENDCHAR
STARTCHAR agrave
ENCODING 224
SWIDTH 483 0
DWIDTH 10 0
BBX 9 20 0 0
BITMAP
2000
1800
1E00
1E00
0200
3E00
7F00
7F80
7780
7780
0780
1F80
7F80
7780
F780
F780
F780
7F80
7B80
3B80
ENDCHAR
STARTCHAR aacute
ENCODING 225
SWIDTH 483 0
DWIDTH 10 0
BBX 9 20 0 0
BITMAP
0200
0600
1E00
1E00
2000
3E00
7F00
7F80
7780
7780
0780
1F80
7F80
7780
F780
F780
F780
7F80
7B80
3B80
ENDCHAR
STARTCHAR acircumflex
ENCODING 226
SWIDTH 483 0
DWIDTH 10 0
BBX 9 20 0 0
BITMAP
1E00
3F00
7F00
7380
0000
3E00
7F00
7F80
7780
7780
0780
1F80
7F80
7780
F780
F780
F780
7F80
7B80
3B80
ENDCHAR
STARTCHAR atilde
ENCODING 227
SWIDTH 483 0
DWIDTH 10 0
BBX 9 20 0 0
BITMAP
3100
7F80
7F00
2700
0000
3E00
7F00
7F80
7780
7780
0780
1F80
7F80
7780
F780
F780
F780
7F80
7B80
3B80
ENDCHAR
STARTCHAR adieresis
ENCODING 228
SWIDTH 483 0
DWIDTH 10 0
BBX 9 19 0 0
BITMAP
7780
7780
7780
0000
3E00
7F00
7F80
7780
7780
0780
1F80
7F80
7780
F780
F780
F780
7F80
7B80
3B80
ENDCHAR
STARTCHAR aring
ENCODING 229
SWIDTH 483 0
DWIDTH 10 0
BBX 9 23 0 0
BITMAP
1E00
3F00
3300
7300
3300
3F00
1E00
0000
3E00
7F00
7F80
7780
7780
0780
1F80
7F80
7780
F780
F780
F780
7F80
7B80
3B80
ENDCHAR
STARTCHAR ae
ENCODING 230
SWIDTH 731 0
DWIDTH 15 0
BBX 14 15 0 0
BITMAP
3EF0
7FF8
7FFC
779C
079C
0FFC
3FFC
7FFC
7780
F79C
F79C
F79C
7FFC
7FF8
3CF0
ENDCHAR
STARTCHAR ccedilla
ENCODING 231
SWIDTH 491 0
DWIDTH 10 0
BBX 8 21 1 -6
BITMAP
3C
FF
FF
E7
E7
E7
E0
E0
E0
E7
E7
E7
FF
FF
7E
18
0C
0C
0E
3E
3C
ENDCHAR
STARTCHAR egrave
ENCODING 232
SWIDTH 488 0
DWIDTH 10 0
BBX 8 20 1 0
BITMAP
40
30
3C
3C
04
3C
FF
FF
E7
E7
E7
FF
FF
E0
E7
E7
E7
FF
FE
7C
ENDCHAR
STARTCHAR eacute
ENCODING 233
SWIDTH 488 0
DWIDTH 10 0
BBX 8 20 1 0
BITMAP
02
0C
3C
3C
40
3C
FF
FF
E7
E7
E7
FF
FF
E0
E7
E7
E7
FF
FE
7C
ENDCHAR
STARTCHAR ecircumflex
ENCODING 234
SWIDTH 488 0
DWIDTH 10 0
BBX 8 20 1 0
BITMAP
3C
7E
7E
E7
00
3C
FF
FF
E7
E7
E7
FF
FF
E0
E7
E7
E7
FF
FE
7C
ENDCHAR
STARTCHAR edieresis
ENCODING 235
SWIDTH 488 0
DWIDTH 10 0
BBX 8 19 1 0
BITMAP
E7
E7
E7
00
3C
FF
FF
E7
E7
E7
FF
FF
E0
E7
E7
E7
FF
FE
7C
ENDCHAR
STARTCHAR igrave
ENCODING 236
SWIDTH 235 0
DWIDTH 5 0
BBX 5 20 0 0
BITMAP
80
E0
F8
F8
08
70
70
70
70
70
70
70
70
70
70
70
70
70
70
70
ENDCHAR
STARTCHAR iacute
ENCODING 237
SWIDTH 235 0
DWIDTH 5 0
BBX 5 20 0 0
BITMAP
08
38
F8
F8
80
70
70
70
70
70
70
70
70
70
70
70
70
70
70
70
ENDCHAR
STARTCHAR icircumflex
ENCODING 238
SWIDTH 235 0
DWIDTH 5 0
BBX 9 20 -2 0
BITMAP
3E00
7E00
7700
F780
0000
1C00
1C00
1C00
1C00
1C00
1C00
1C00
1C00
1C00
1C00
1C00
1C00
1C00
1C00
1C00
ENDCHAR
STARTCHAR idieresis
ENCODING 239
SWIDTH 235 0
DWIDTH 5 0
BBX 8 19 -2 0
BITMAP
F7
F7
F7
00
1C
1C
1C
1C
1C
1C
1C
1C
1C
1C
1C
1C
1C
1C
1C
ENDCHAR
STARTCHAR eth
ENCODING 240
SWIDTH 503 0
DWIDTH 10 0
BBX 10 18 0 0
BITMAP
2000
7880
7DC0
1F80
0F00
3F80
1380
0380
3FC0
7FC0
7FC0
73C0
F3C0
73C0
73C0
7F80
7F80
3F00
ENDCHAR
STARTCHAR ntilde
ENCODING 241
SWIDTH 499 0
DWIDTH 10 0
BBX 8 20 1 0
BITMAP
72
7F
FF
4E
00
EE
FF
FF
E7
E7
E7
E7
E7
E7
E7
E7
E7
E7
E7
E7
ENDCHAR
STARTCHAR ograve
ENCODING 242
SWIDTH 497 0
DWIDTH 10 0
BBX 8 20 1 0
BITMAP
40
30
3C
3C
04
3C
7E
FF
E7
E7
E7
E7
E7
E7
E7
E7
E7
FF
FF
3C
ENDCHAR
STARTCHAR oacute
ENCODING 243
SWIDTH 497 0
DWIDTH 10 0
BBX 8 20 1 0
BITMAP
04
0C
3C
3C
40
3C
7E
FF
E7
E7
E7
E7
E7
E7
E7
E7
E7
FF
FF
3C
ENDCHAR
STARTCHAR ocircumflex
ENCODING 244
SWIDTH 497 0
DWIDTH 10 0
BBX 8 20 1 0
BITMAP
3C
7E
FE
E7
00
3C
7E
FF
E7
E7
E7
E7
E7
E7
E7
E7
E7
FF
FF
3C
ENDCHAR
STARTCHAR otilde
ENCODING 245
SWIDTH 497 0
DWIDTH 10 0
BBX 8 20 1 0
BITMAP
72
7F
FE
4E
00
3C
7E
FF
E7
E7
E7
E7
E7
E7
E7
E7
E7
FF
FF
3C
ENDCHAR
STARTCHAR odieresis
ENCODING 246
SWIDTH 497 0
DWIDTH 10 0
BBX 8 19 1 0
BITMAP
E7
E7
E7
00
3C
7E
FF
E7
E7
E7
E7
E7
E7
E7
E7
E7
FF
FF
3C
ENDCHAR
STARTCHAR divide
ENCODING 247
SWIDTH 334 0
DWIDTH 7 0
BBX 6 10 0 2
BITMAP
38
38
38
FC
FC
FC
00
38
38
38
ENDCHAR
STARTCHAR oslash
ENCODING 248
SWIDTH 483 0
DWIDTH 10 0
BBX 9 18 1 -2
BITMAP
0180
3F00
7E00
FF00
E700
E700
E700
E700
E700
E700
E700
E700
E700
FF00
FF00
7C00
C000
4000
ENDCHAR
STARTCHAR ugrave
ENCODING 249
SWIDTH 499 0
DWIDTH 10 0
BBX 8 20 1 0
BITMAP
40
30
3C
3C
04
E7
E7
E7
E7
E7
E7
E7
E7
E7
E7
E7
E7
FF
FF
77
ENDCHAR
STARTCHAR uacute
ENCODING 250
SWIDTH 499 0
DWIDTH 10 0
BBX 8 20 1 0
BITMAP
02
0C
3C
3C
40
E7
E7
E7
E7
E7
E7
E7
E7
E7
E7
E7
E7
FF
FF
77
ENDCHAR
STARTCHAR ucircumflex
ENCODING 251
SWIDTH 499 0
DWIDTH 10 0
BBX 8 20 1 0
BITMAP
3C
7E
7E
E7
00
E7
E7
E7
E7
E7
E7
E7
E7
E7
E7
E7
E7
FF
FF
77
ENDCHAR
STARTCHAR udieresis
ENCODING 252
SWIDTH 499 0
DWIDTH 10 0
BBX 8 19 1 0
BITMAP
E7
E7
E7
00
E7
E7
E7
E7
E7
E7
E7
E7
E7
E7
E7
E7
FF
FF
77
ENDCHAR
STARTCHAR yacute
ENCODING 253
SWIDTH 461 0
DWIDTH 9 0
BBX 9 22 0 -2
BITMAP
0200
0E00
3E00
3E00
2000
F380
F780
7780
7700
7700
7700
7700
7700
3600
3600
3600
3E00
3E00
3E00
3C00
FC00
FC00
ENDCHAR
STARTCHAR thorn
ENCODING 254
SWIDTH 492 0
DWIDTH 10 0
BBX 8 19 1 -1
BITMAP
E0
E0
E0
EE
FF
FF
E7
E7
E7
E7
E7
E7
E7
E7
E7
FF
FF
EE
E0
ENDCHAR
STARTCHAR ydieresis
ENCODING 255
SWIDTH 461 0
DWIDTH 9 0
BBX 9 21 0 -2
BITMAP
F780
F780
F780
0000
F380
F780
7780
7700
7700
7700
7700
7700
3600
3600
3600
3E00
3E00
3E00
3C00
FC00
FC00
ENDCHAR
STARTCHAR Amacron
ENCODING 256
SWIDTH 485 0
DWIDTH 10 0
BBX 9 21 0 0
BITMAP
3F00
3F00
0000
0000
3F00
3F00
3F00
3F00
3F00
7F00
7700
7780
7780
7380
7380
7F80
7F80
7F80
7380
F380
F380
ENDCHAR
STARTCHAR amacron
ENCODING 257
SWIDTH 483 0
DWIDTH 10 0
BBX 9 18 0 0
BITMAP
3F00
3F00
0000
3E00
7F00
7F80
7780
7780
0780
1F80
7F80
7780
F780
F780
F780
7F80
7B80
3B80
ENDCHAR
STARTCHAR Abreve
ENCODING 258
SWIDTH 485 0
DWIDTH 10 0
BBX 9 23 0 0
BITMAP
7380
7F80
3F00
1E00
0000
0000
3F00
3F00
3F00
3F00
3F00
7F00
7700
7780
7780
7380
7380
7F80
7F80
7F80
7380
F380
F380
ENDCHAR
STARTCHAR abreve
ENCODING 259
SWIDTH 483 0
DWIDTH 10 0
BBX 9 20 0 0
BITMAP
7380
7F80
3F00
1E00
0000
3E00
7F00
7F80
7780
7780
0780
1F80
7F80
7780
F780
F780
F780
7F80
7B80
3B80
ENDCHAR
STARTCHAR Aogonek
ENCODING 260
SWIDTH 485 0
DWIDTH 10 0
BBX 10 23 0 -6
BITMAP
3F00
3F00
3F00
3F00
3F00
7F00
7700
7780
7780
7380
7380
7F80
7F80
7F80
7380
F380
F380
0300
0600
0E00
0FC0
07C0
03C0
ENDCHAR
STARTCHAR aogonek
ENCODING 261
SWIDTH 483 0
DWIDTH 10 0
BBX 9 22 0 -7
BITMAP
3E00
7F00
7F80
7780
7780
0780
1F80
7F80
7780
F780
F780
F780
7F80
7B80
3B80
0300
0600
0E00
0E00
0F80
0F80
0380
ENDCHAR
STARTCHAR Cacute
ENCODING 262
SWIDTH 474 0
DWIDTH 9 0
BBX 8 23 1 0
BITMAP
04
1C
7C
7C
40
00
3C
FE
FF
E7
E7
E7
E7
E0
E0
E0
E7
E7
E7
E7
FF
FE
3C
ENDCHAR
STARTCHAR cacute
ENCODING 263
SWIDTH 491 0
DWIDTH 10 0
BBX 8 20 1 0
BITMAP
02
0C
3C
3C
20
3C
FF
FF
E7
E7
E7
E0
E0
E0
E7
E7
E7
FF
FF
3C
ENDCHAR
STARTCHAR Ccircumflex
ENCODING 264
SWIDTH 474 0
DWIDTH 9 0
BBX 9 23 0 0
BITMAP
1E00
3F00
7700
7380
8000
0000
1E00
7F00
7F80
7380
7380
7380
7380
7000
7000
7000
7380
7380
7380
7380
7F80
7F00
1E00
ENDCHAR
STARTCHAR ccircumflex
ENCODING 265
SWIDTH 491 0
DWIDTH 10 0
BBX 8 20 1 0
BITMAP
3C
7E
7E
E7
00
3C
FF
FF
E7
E7
E7
E0
E0
E0
E7
E7
E7
FF
FF
3C
ENDCHAR
STARTCHAR Cdotaccent
ENCODING 266
SWIDTH 474 0
DWIDTH 9 0
BBX 8 22 1 0
BITMAP
3C
3C
3C
00
00
3C
FE
FF
E7
E7
E7
E7
E0
E0
E0
E7
E7
E7
E7
FF
FE
3C
ENDCHAR
STARTCHAR cdotaccent
ENCODING 267
SWIDTH 491 0
DWIDTH 10 0
BBX 8 19 1 0
BITMAP
3C
3C
3C
00
3C
FF
FF
E7
E7
E7
E0
E0
E0
E7
E7
E7
FF
FF
3C
ENDCHAR
STARTCHAR Ccaron
ENCODING 268
SWIDTH 474 0
DWIDTH 9 0
BBX 9 23 0 0
BITMAP
F380
7700
3F00
1E00
0000
0000
1E00
7F00
7F80
7380
7380
7380
7380
7000
7000
7000
7380
7380
7380
7380
7F80
7F00
1E00
ENDCHAR
STARTCHAR ccaron
ENCODING 269
SWIDTH 491 0
DWIDTH 10 0
BBX 8 20 1 0
BITMAP
E7
7E
7E
3C
00
3C
FF
FF
E7
E7
E7
E0
E0
E0
E7
E7
E7
FF
FF
3C
ENDCHAR
STARTCHAR Dcaron
ENCODING 270
SWIDTH 493 0
DWIDTH 10 0
BBX 8 23 1 0
BITMAP
E7
FE
7E
3C
00
00
FE
FF
FF
E7
E7
E7
E7
E7
E7
E7
E7
E7
E7
E7
FF
FF
FE
ENDCHAR
STARTCHAR dcaron
ENCODING 271
SWIDTH 498 0
DWIDTH 10 0
BBX 13 18 1 0
BITMAP
0738
0738
0738
7718
FF38
FF00
E700
E700
E700
E700
E700
E700
E700
E700
E700
FF00
FF00
7700
ENDCHAR
STARTCHAR Dcroat
ENCODING 272
SWIDTH 493 0
DWIDTH 10 0
BBX 9 17 0 0
BITMAP
7F00
7F80
7F80
7380
7380
7380
FB80
FB80
FB80
7380
7380
7380
7380
7380
7F80
7F80
7F00
ENDCHAR
STARTCHAR dcroat
ENCODING 273
SWIDTH 498 0
DWIDTH 10 0
BBX 10 18 1 0
BITMAP
0700
1FC0
1FC0
7700
FF00
FF00
E700
E700
E700
E700
E700
E700
E700
E700
E700
FF00
FF00
7700
ENDCHAR
STARTCHAR Emacron
ENCODING 274
SWIDTH 412 0
DWIDTH 8 0
BBX 7 21 1 0
BITMAP
FC
FC
00
00
FE
FE
FE
E0
E0
E0
FE
FE
FE
E0
E0
E0
E0
E0
FE
FE
FE
ENDCHAR
STARTCHAR emacron
ENCODING 275
SWIDTH 488 0
DWIDTH 10 0
BBX 8 18 1 0
BITMAP
7E
7E
00
3C
FF
FF
E7
E7
E7
FF
FF
E0
E7
E7
E7
FF
FE
7C
ENDCHAR
STARTCHAR Ebreve
ENCODING 276
SWIDTH 412 0
DWIDTH 8 0
BBX 7 23 1 0
BITMAP
C6
FE
FE
7C
00
00
FE
FE
FE
E0
E0
E0
FE
FE
FE
E0
E0
E0
E0
E0
FE
FE
FE
ENDCHAR
STARTCHAR ebreve
ENCODING 277
SWIDTH 488 0
DWIDTH 10 0
BBX 8 20 1 0
BITMAP
E7
FF
7E
3C
00
3C
FF
FF
E7
E7
E7
FF
FF
E0
E7
E7
E7
FF
FE
7C
ENDCHAR
STARTCHAR Edotaccent
ENCODING 278
SWIDTH 412 0
DWIDTH 8 0
BBX 7 22 1 0
BITMAP
38
38
38
00
00
FE
FE
FE
E0
E0
E0
FE
FE
FE
E0
E0
E0
E0
E0
FE
FE
FE
ENDCHAR
STARTCHAR edotaccent
ENCODING 279
SWIDTH 488 0
DWIDTH 10 0
BBX 8 19 1 0
BITMAP
3C
3C
3C
00
3C
FF
FF
E7
E7
E7
FF
FF
E0
E7
E7
E7
FF
FE
7C
ENDCHAR
STARTCHAR Eogonek
ENCODING 280
SWIDTH 412 0
DWIDTH 8 0
BBX 7 23 1 -6
BITMAP
FE
FE
FE
E0
E0
E0
FE
FE
FE
E0
E0
E0
E0
E0
FE
FE
FE
30
60
E0
F8
F8
38
ENDCHAR
STARTCHAR eogonek
ENCODING 281
SWIDTH 488 0
DWIDTH 10 0
BBX 8 21 1 -6
BITMAP
3C
FF
FF
E7
E7
E7
FF
FF
E0
E7
E7
E7
FF
FF
7E
18
70
70
F0
7C
7C
ENDCHAR
STARTCHAR Ecaron
ENCODING 282
SWIDTH 412 0
DWIDTH 8 0
BBX 9 23 0 0
BITMAP
F780
7700
7E00
3E00
0000
0000
7F00
7F00
7F00
7000
7000
7000
7F00
7F00
7F00
7000
7000
7000
7000
7000
7F00
7F00
7F00
ENDCHAR
STARTCHAR ecaron
ENCODING 283
SWIDTH 488 0
DWIDTH 10 0
BBX 8 20 1 0
BITMAP
E7
7E
7E
3C
00
3C
FF
FF
E7
E7
E7
FF
FF
E0
E7
E7
E7
FF
FE
7C
ENDCHAR
STARTCHAR Gcircumflex
ENCODING 284
SWIDTH 485 0
DWIDTH 10 0
BBX 9 23 0 0
BITMAP
1E00
3F00
7700
7380
8000
0000
1E00
7F00
7F80
7380
7380
7380
7000
7780
7780
7780
7380
7380
7380
7380
7F80
7F80
3D80
ENDCHAR
STARTCHAR gcircumflex
ENCODING 285
SWIDTH 504 0
DWIDTH 10 0
BBX 9 22 0 -2
BITMAP
1E00
3F00
3F00
7380
0000
3B80
7F80
7F80
7380
7380
7380
7380
7380
7380
7380
7F80
7F80
3B80
4380
7F80
FF80
3E00
ENDCHAR
STARTCHAR Gbreve
ENCODING 286
SWIDTH 485 0
DWIDTH 10 0
BBX 8 23 1 0
BITMAP
E7
FF
7E
3C
00
00
3C
FE
FF
E7
E7
E7
E0
EF
EF
EF
E7
E7
E7
E7
FF
FF
7B
ENDCHAR
STARTCHAR gbreve
ENCODING 287
SWIDTH 504 0
DWIDTH 10 0
BBX 9 22 0 -2
BITMAP
7380
7F80
3F00
1E00
0000
3B80
7F80
7F80
7380
7380
7380
7380
7380
7380
7380
7F80
7F80
3B80
4380
7F80
FF80
3E00
ENDCHAR
STARTCHAR Gdotaccent
ENCODING 288
SWIDTH 485 0
DWIDTH 10 0
BBX 8 22 1 0
BITMAP
3C
3C
3C
00
00
3C
FE
FF
E7
E7
E7
E0
EF
EF
EF
E7
E7
E7
E7
FF
FF
7B
ENDCHAR
STARTCHAR gdotaccent
ENCODING 289
SWIDTH 504 0
DWIDTH 10 0
BBX 9 21 0 -2
BITMAP
1E00
1E00
1E00
0000
3B80
7F80
7F80
7380
7380
7380
7380
7380
7380
7380
7F80
7F80
3B80
4380
7F80
FF80
3E00
ENDCHAR
STARTCHAR Gcommaaccent
ENCODING 290
SWIDTH 485 0
DWIDTH 10 0
BBX 8 23 1 -6
BITMAP
3C
FE
FF
E7
E7
E7
E0
EF
EF
EF
E7
E7
E7
E7
FF
FF
7B
00
3C
3C
3C
18
18
ENDCHAR
STARTCHAR gcommaaccent
ENCODING 291
SWIDTH 504 0
DWIDTH 10 0
BBX 9 25 0 -2
BITMAP
0C00
0C00
1C00
1E00
1E00
1E00
0000
0000
3B80
7F80
7F80
7380
7380
7380
7380
7380
7380
7380
7F80
7F80
3B80
4380
7F80
FF80
3E00
ENDCHAR
STARTCHAR Hcircumflex
ENCODING 292
SWIDTH 499 0
DWIDTH 10 0
BBX 8 23 1 0
BITMAP
3C
7E
7E
E7
00
00
E7
E7
E7
E7
E7
E7
FF
FF
FF
E7
E7
E7
E7
E7
E7
E7
E7
ENDCHAR
STARTCHAR hcircumflex
ENCODING 293
SWIDTH 505 0
DWIDTH 10 0
BBX 11 23 -2 0
BITMAP
3E00
3600
7700
F780
0000
1C00
1C00
1C00
1DC0
1FE0
1FE0
1CE0
1CE0
1CE0
1CE0
1CE0
1CE0
1CE0
1CE0
1CE0
1CE0
1CE0
1CE0
ENDCHAR
STARTCHAR Hbar
ENCODING 294
SWIDTH 483 0
DWIDTH 10 0
BBX 10 17 0 0
BITMAP
7380
7380
FFC0
FFC0
7380
7380
7F80
7F80
7F80
7380
7380
7380
7380
7380
7380
7380
7380
ENDCHAR
STARTCHAR hbar
ENCODING 295
SWIDTH 505 0
DWIDTH 10 0
BBX 10 18 -1 0
BITMAP
3800
FE00
FE00
3B80
3FC0
3FC0
39C0
39C0
39C0
39C0
39C0
39C0
39C0
39C0
39C0
39C0
39C0
39C0
ENDCHAR
STARTCHAR Itilde
ENCODING 296
SWIDTH 227 0
DWIDTH 5 0
BBX 8 23 -2 0
BITMAP
32
7F
FF
4E
00
00
1C
1C
1C
1C
1C
1C
1C
1C
1C
1C
1C
1C
1C
1C
1C
1C
1C
ENDCHAR
STARTCHAR itilde
ENCODING 297
SWIDTH 235 0
DWIDTH 5 0
BBX 8 20 -2 0
BITMAP
32
7F
FF
4E
00
1C
1C
1C
1C
1C
1C
1C
1C
1C
1C
1C
1C
1C
1C
1C
ENDCHAR
STARTCHAR Imacron
ENCODING 298
SWIDTH 227 0
DWIDTH 5 0
BBX 6 21 -1 0
BITMAP
FC
FC
00
00
38
38
38
38
38
38
38
38
38
38
38
38
38
38
38
38
38
ENDCHAR
STARTCHAR imacron
ENCODING 299
SWIDTH 235 0
DWIDTH 5 0
BBX 7 18 -1 0
BITMAP
FE
FE
00
38
38
38
38
38
38
38
38
38
38
38
38
38
38
38
ENDCHAR
STARTCHAR Ibreve
ENCODING 300
SWIDTH 227 0
DWIDTH 5 0
BBX 8 23 -2 0
BITMAP
E3
7F
7F
3E
00
00
1C
1C
1C
1C
1C
1C
1C
1C
1C
1C
1C
1C
1C
1C
1C
1C
1C
ENDCHAR
STARTCHAR ibreve
ENCODING 301
SWIDTH 235 0
DWIDTH 5 0
BBX 7 20 -1 0
BITMAP
C6
FE
FE
7C
00
38
38
38
38
38
38
38
38
38
38
38
38
38
38
38
ENDCHAR
STARTCHAR Iogonek
ENCODING 302
SWIDTH 227 0
DWIDTH 5 0
BBX 6 23 -1 -6
BITMAP
38
38
38
38
38
38
38
38
38
38
38
38
38
38
38
38
38
30
70
E0
FC
7C
3C
ENDCHAR
STARTCHAR iogonek
ENCODING 303
SWIDTH 244 0
DWIDTH 5 0
BBX 5 25 0 -6
BITMAP
70
70
70
00
70
70
70
70
70
70
70
70
70
70
70
70
70
70
70
70
E0
E0
F8
F8
78
ENDCHAR
STARTCHAR Idotaccent
ENCODING 304
SWIDTH 227 0
DWIDTH 5 0
BBX 3 22 1 0
BITMAP
E0
E0
E0
00
00
E0
E0
E0
E0
E0
E0
E0
E0
E0
E0
E0
E0
E0
E0
E0
E0
E0
ENDCHAR
STARTCHAR dotlessi
ENCODING 305
SWIDTH 235 0
DWIDTH 5 0
BBX 3 15 1 0
BITMAP
E0
E0
E0
E0
E0
E0
E0
E0
E0
E0
E0
E0
E0
E0
E0
ENDCHAR
STARTCHAR IJ
ENCODING 306
SWIDTH 693 0
DWIDTH 14 0
BBX 12 17 1 0
BITMAP
E070
E070
E070
E070
E070
E070
E070
E070
E070
EE70
EE70
EE70
EE70
EE70
EFF0
E7E0
E3C0
ENDCHAR
STARTCHAR ij
ENCODING 307
SWIDTH 506 0
DWIDTH 10 0
BBX 8 21 1 -2
BITMAP
E7
E7
E7
00
E7
E7
E7
E7
E7
E7
E7
E7
E7
E7
E7
E7
E7
E7
EF
0F
04
ENDCHAR
STARTCHAR Jcircumflex
ENCODING 308
SWIDTH 466 0
DWIDTH 9 0
BBX 11 23 0 0
BITMAP
0780
0FC0
0FC0
1CE0
0000
0000
0780
0780
0780
0780
0780
0780
0780
0780
0780
F780
F780
F780
F780
F780
7F00
7F00
3E00
ENDCHAR
STARTCHAR jcircumflex
ENCODING 309
SWIDTH 263 0
DWIDTH 5 0
BBX 8 22 -1 -2
BITMAP
3C
7E
FE
E7
00
3C
3C
3C
3C
3C
3C
3C
3C
3C
3C
3C
3C
3C
3C
78
78
30
ENDCHAR
STARTCHAR Kcommaaccent
ENCODING 310
SWIDTH 472 0
DWIDTH 9 0
BBX 9 23 1 -6
BITMAP
E700
EF00
EF00
EE00
EE00
FE00
FE00
FC00
FC00
FE00
EE00
EE00
EE00
EF00
EF00
E700
E780
0000
3C00
3C00
3C00
1C00
1800
ENDCHAR
STARTCHAR kcommaaccent
ENCODING 311
SWIDTH 497 0
DWIDTH 10 0
BBX 9 24 1 -6
BITMAP
E000
E000
E000
E700
EF00
EF00
EE00
FE00
FE00
FC00
FE00
FE00
EE00
EF00
EF00
E700
E780
E780
0000
1C00
1C00
1C00
0C00
1C00
ENDCHAR
STARTCHAR kgreenlandic
ENCODING 312
SWIDTH 488 0
DWIDTH 10 0
BBX 9 15 1 0
BITMAP
E700
EF00
EF00
EE00
FE00
FE00
FC00
FC00
FE00
FE00
EE00
EF00
EF00
E700
E780
ENDCHAR
STARTCHAR Lacute
ENCODING 313
SWIDTH 397 0
DWIDTH 8 0
BBX 8 23 0 0
BITMAP
08
38
F8
F8
80
00
70
70
70
70
70
70
70
70
70
70
70
70
70
70
7F
7F
7F
ENDCHAR
STARTCHAR lacute
ENCODING 314
SWIDTH 248 0
DWIDTH 5 0
BBX 5 23 0 0
BITMAP
08
38
F8
F8
80
70
70
70
70
70
70
70
70
70
70
70
70
70
70
70
70
70
70
ENDCHAR
STARTCHAR Lcommaaccent
ENCODING 315
SWIDTH 397 0
DWIDTH 8 0
BBX 7 23 1 -6
BITMAP
E0
E0
E0
E0
E0
E0
E0
E0
E0
E0
E0
E0
E0
E0
FE
FE
FE
00
78
78
78
38
30
ENDCHAR
STARTCHAR lcommaaccent
ENCODING 316
SWIDTH 248 0
DWIDTH 5 0
BBX 4 24 1 -6
BITMAP
E0
E0
E0
E0
E0
E0
E0
E0
E0
E0
E0
E0
E0
E0
E0
E0
E0
E0
00
F0
F0
F0
60
E0
ENDCHAR
STARTCHAR Lcaron
ENCODING 317
SWIDTH 397 0
DWIDTH 8 0
BBX 8 18 1 0
BITMAP
0F
EF
EF
E6
E6
E0
E0
E0
E0
E0
E0
E0
E0
E0
E0
FE
FE
FE
ENDCHAR
STARTCHAR lcaron
ENCODING 318
SWIDTH 248 0
DWIDTH 5 0
BBX 8 18 1 0
BITMAP
E7
E7
E7
E3
E7
E0
E0
E0
E0
E0
E0
E0
E0
E0
E0
E0
E0
E0
ENDCHAR
STARTCHAR Ldot
ENCODING 319
SWIDTH 451 0
DWIDTH 9 0
BBX 8 17 1 0
BITMAP
E0
E0
E0
E0
E0
E0
EF
EF
EF
E0
E0
E0
E0
E0
FE
FE
FE
ENDCHAR
STARTCHAR ldot
ENCODING 320
SWIDTH 438 0
DWIDTH 9 0
BBX 7 18 1 0
BITMAP
E0
E0
E0
E0
E0
E0
E0
EE
EE
EE
E0
E0
E0
E0
E0
E0
E0
E0
ENDCHAR
STARTCHAR Lslash
ENCODING 321
SWIDTH 417 0
DWIDTH 8 0
BBX 8 17 0 0
BITMAP
70
70
70
70
70
7C
7C
FC
F8
F0
70
70
70
70
7F
7F
7F
ENDCHAR
STARTCHAR lslash
ENCODING 322
SWIDTH 288 0
DWIDTH 6 0
BBX 6 18 0 0
BITMAP
78
78
78
78
78
78
78
7C
7C
FC
F8
F8
78
78
78
78
78
78
ENDCHAR
STARTCHAR Nacute
ENCODING 323
SWIDTH 498 0
DWIDTH 10 0
BBX 8 23 1 0
BITMAP
02
0C
3C
3C
20
00
E7
F7
F7
F7
F7
F7
FF
FF
FF
FF
EF
EF
EF
EF
EF
E7
E7
ENDCHAR
STARTCHAR nacute
ENCODING 324
SWIDTH 499 0
DWIDTH 10 0
BBX 8 20 1 0
BITMAP
02
0C
3C
3C
40
EE
FF
FF
E7
E7
E7
E7
E7
E7
E7
E7
E7
E7
E7
E7
ENDCHAR
STARTCHAR Ncommaaccent
ENCODING 325
SWIDTH 498 0
DWIDTH 10 0
BBX 8 23 1 -6
BITMAP
E7
F7
F7
F7
F7
F7
FF
FF
FF
FF
EF
EF
EF
EF
EF
E7
E7
00
3C
3C
3C
18
18
ENDCHAR
STARTCHAR ncommaaccent
ENCODING 326
SWIDTH 499 0
DWIDTH 10 0
BBX 8 21 1 -6
BITMAP
EE
FF
FF
E7
E7
E7
E7
E7
E7
E7
E7
E7
E7
E7
E7
00
3C
3C
3C
1C
18
ENDCHAR
STARTCHAR Ncaron
ENCODING 327
SWIDTH 498 0
DWIDTH 10 0
BBX 9 23 1 0
BITMAP
E780
7700
7E00
3C00
0000
0000
E700
F700
F700
F700
F700
F700
FF00
FF00
FF00
FF00
EF00
EF00
EF00
EF00
EF00
E700
E700
ENDCHAR
STARTCHAR ncaron
ENCODING 328
SWIDTH 499 0
DWIDTH 10 0
BBX 8 20 1 0
BITMAP
E7
7E
7E
3C
00
EE
FF
FF
E7
E7
E7
E7
E7
E7
E7
E7
E7
E7
E7
E7
ENDCHAR
STARTCHAR napostrophe
ENCODING 329
SWIDTH 535 0
DWIDTH 11 0
BBX 11 21 -1 0
BITMAP
F000
F000
F000
7000
6000
0000
3DC0
3FE0
3FE0
3CE0
3CE0
3CE0
3CE0
3CE0
3CE0
3CE0
3CE0
3CE0
3CE0
3CE0
3CE0
ENDCHAR
STARTCHAR Eng
ENCODING 330
SWIDTH 491 0
DWIDTH 10 0
BBX 8 22 1 -5
BITMAP
E7
F7
F7
F7
F7
F7
FF
FF
FF
FF
EF
EF
EF
EF
EF
E7
E7
07
07
FF
FE
7C
ENDCHAR
STARTCHAR eng
ENCODING 331
SWIDTH 489 0
DWIDTH 10 0
BBX 8 20 1 -5
BITMAP
EE
FF
FF
E7
E7
E7
E7
E7
E7
E7
E7
E7
E7
E7
E7
07
07
FF
FE
7C
ENDCHAR
STARTCHAR Omacron
ENCODING 332
SWIDTH 486 0
DWIDTH 10 0
BBX 8 21 1 0
BITMAP
7E
7E
00
00
3C
FE
FF
E7
E7
E7
E7
E7
E7
E7
E7
E7
E7
E7
FF
FE
3C
ENDCHAR
STARTCHAR omacron
ENCODING 333
SWIDTH 497 0
DWIDTH 10 0
BBX 8 18 1 0
BITMAP
7E
7E
00
3C
7E
FF
E7
E7
E7
E7
E7
E7
E7
E7
E7
FF
FF
3C
ENDCHAR
STARTCHAR Obreve
ENCODING 334
SWIDTH 486 0
DWIDTH 10 0
BBX 8 23 1 0
BITMAP
E7
FF
7E
3C
00
00
3C
FE
FF
E7
E7
E7
E7
E7
E7
E7
E7
E7
E7
E7
FF
FE
3C
ENDCHAR
STARTCHAR obreve
ENCODING 335
SWIDTH 497 0
DWIDTH 10 0
BBX 8 20 1 0
BITMAP
E7
FF
7E
3C
00
3C
7E
FF
E7
E7
E7
E7
E7
E7
E7
E7
E7
FF
FF
3C
ENDCHAR
STARTCHAR Ohungarumlaut
ENCODING 336
SWIDTH 486 0
DWIDTH 10 0
BBX 9 24 1 0
BITMAP
1F00
1B80
3F00
3600
3E00
0000
0000
3C00
FE00
FF00
E700
E700
E700
E700
E700
E700
E700
E700
E700
E700
E700
FF00
FE00
3C00
ENDCHAR
STARTCHAR ohungarumlaut
ENCODING 337
SWIDTH 497 0
DWIDTH 10 0
BBX 9 21 1 0
BITMAP
1F00
1B80
3F00
3600
3600
0000
3C00
7E00
FF00
E700
E700
E700
E700
E700
E700
E700
E700
E700
FF00
FF00
3C00
ENDCHAR
STARTCHAR OE
ENCODING 338
SWIDTH 649 0
DWIDTH 13 0
BBX 13 17 0 0
BITMAP
1FF0
7FF0
7FF0
F380
F380
F380
F3F0
F3F0
F3F0
F380
F380
F380
F380
7380
7FF8
7FF8
1FF8
ENDCHAR
STARTCHAR oe
ENCODING 339
SWIDTH 739 0
DWIDTH 15 0
BBX 14 15 0 0
BITMAP
1EF0
7FFC
7FFC
739C
F39C
F3FC
F3FC
F3FC
F380
F39C
F39C
739C
7FFC
7FF8
3EF0
ENDCHAR
STARTCHAR Racute
ENCODING 340
SWIDTH 477 0
DWIDTH 10 0
BBX 8 23 1 0
BITMAP
04
1C
7C
7C
40
00
FE
FF
FF
E7
E7
E7
FF
FE
FE
EF
E7
E7
E7
E7
E7
E7
E7
ENDCHAR
STARTCHAR racute
ENCODING 341
SWIDTH 344 0
DWIDTH 7 0
BBX 6 20 1 0
BITMAP
08
38
F8
F8
80
EC
FC
FC
E0
E0
E0
E0
E0
E0
E0
E0
E0
E0
E0
E0
ENDCHAR
STARTCHAR Rcommaaccent
ENCODING 342
SWIDTH 477 0
DWIDTH 10 0
BBX 8 23 1 -6
BITMAP
FE
FF
FF
E7
E7
E7
FF
FE
FE
EF
E7
E7
E7
E7
E7
E7
E7
00
3C
3C
3C
18
18
ENDCHAR
STARTCHAR rcommaaccent
ENCODING 343
SWIDTH 344 0
DWIDTH 7 0
BBX 6 21 1 -6
BITMAP
EC
FC
FC
E0
E0
E0
E0
E0
E0
E0
E0
E0
E0
E0
E0
00
E0
E0
E0
60
E0
ENDCHAR
STARTCHAR Rcaron
ENCODING 344
SWIDTH 477 0
DWIDTH 10 0
BBX 9 23 0 0
BITMAP
F780
7700
3F00
3E00
0000
0000
7F00
7F80
7F80
7380
7380
7380
7F80
7F00
7F00
7780
7380
7380
7380
7380
7380
7380
7380
ENDCHAR
STARTCHAR rcaron
ENCODING 345
SWIDTH 342 0
DWIDTH 7 0
BBX 9 20 -1 0
BITMAP
F380
7700
3F00
1E00
0000
3B00
3F00
3F00
3800
3800
3800
3800
3800
3800
3800
3800
3800
3800
3800
3800
ENDCHAR
STARTCHAR Sacute
ENCODING 346
SWIDTH 461 0
DWIDTH 9 0
BBX 9 23 0 0
BITMAP
0200
0E00
3E00
3E00
2000
0000
3E00
7F00
7F00
F780
F780
7800
7C00
3E00
3F00
1F00
0F80
F780
F780
F780
7F00
7F00
3E00
ENDCHAR
STARTCHAR sacute
ENCODING 347
SWIDTH 475 0
DWIDTH 10 0
BBX 9 20 0 0
BITMAP
0200
0E00
3E00
3E00
2000
3E00
7F00
7F80
F780
F780
7C00
7E00
1F00
0F80
F780
F780
F780
7F80
7F00
3E00
ENDCHAR
STARTCHAR Scircumflex
ENCODING 348
SWIDTH 461 0
DWIDTH 9 0
BBX 9 23 0 0
BITMAP
3E00
3600
7700
F780
0000
0000
3E00
7F00
7F00
F780
F780
7800
7C00
3E00
3F00
1F00
0F80
F780
F780
F780
7F00
7F00
3E00
ENDCHAR
STARTCHAR scircumflex
ENCODING 349
SWIDTH 475 0
DWIDTH 10 0
BBX 9 20 0 0
BITMAP
3E00
3F00
7700
F780
0000
3E00
7F00
7F80
F780
F780
7C00
7E00
1F00
0F80
F780
F780
F780
7F80
7F00
3E00
ENDCHAR
STARTCHAR Scedilla
ENCODING 350
SWIDTH 461 0
DWIDTH 9 0
BBX 9 23 0 -6
BITMAP
3E00
7F00
7F00
F780
F780
7800
7C00
3E00
1F00
0F00
0780
F780
F780
F780
7F80
7F00
3E00
0C00
0C00
0600
0600
3E00
3E00
ENDCHAR
STARTCHAR scedilla
ENCODING 351
SWIDTH 475 0
DWIDTH 10 0
BBX 9 21 0 -6
BITMAP
3E00
7F00
7F80
F780
F780
7800
7E00
3F00
0F80
0780
F780
F780
7F80
7F80
3F00
0C00
0C00
0600
0600
3E00
3E00
ENDCHAR
STARTCHAR Scaron
ENCODING 352
SWIDTH 461 0
DWIDTH 9 0
BBX 9 23 0 0
BITMAP
F780
7700
3600
3E00
0000
0000
3E00
7F00
7F00
F780
F780
7800
7C00
3E00
3F00
1F00
0F80
F780
F780
F780
7F00
7F00
3E00
ENDCHAR
STARTCHAR scaron
ENCODING 353
SWIDTH 476 0
DWIDTH 10 0
BBX 9 20 0 0
BITMAP
F780
7700
3F00
3E00
0000
3E00
7F00
7F80
F780
F780
7C00
7E00
1F00
0F80
F780
F780
F780
7F80
7F00
3E00
ENDCHAR
STARTCHAR uni0162
ENCODING 354
SWIDTH 396 0
DWIDTH 8 0
BBX 8 23 0 -6
BITMAP
FF
FF
FF
3C
3C
3C
3C
3C
3C
3C
3C
3C
3C
3C
3C
3C
3C
18
0C
0C
3E
3C
3C
ENDCHAR
STARTCHAR uni0163
ENCODING 355
SWIDTH 305 0
DWIDTH 6 0
BBX 6 23 0 -6
BITMAP
78
78
78
FC
FC
FC
78
78
78
78
78
78
78
78
78
7C
3C
18
0C
0C
0C
3C
3C
ENDCHAR
STARTCHAR Tcaron
ENCODING 356
SWIDTH 396 0
DWIDTH 8 0
BBX 8 23 0 0
BITMAP
E7
FE
7E
3C
00
00
FF
FF
FF
3C
3C
3C
3C
3C
3C
3C
3C
3C
3C
3C
3C
3C
3C
ENDCHAR
STARTCHAR tcaron
ENCODING 357
SWIDTH 305 0
DWIDTH 6 0
BBX 10 18 0 0
BITMAP
03C0
7BC0
7BC0
FDC0
FD80
FC00
7800
7800
7800
7800
7800
7800
7800
7800
7800
7C00
7C00
3C00
ENDCHAR
STARTCHAR Tbar
ENCODING 358
SWIDTH 396 0
DWIDTH 8 0
BBX 8 17 0 0
BITMAP
FF
FF
FF
3C
3C
3C
3C
7E
7E
3C
3C
3C
3C
3C
3C
3C
3C
ENDCHAR
STARTCHAR tbar
ENCODING 359
SWIDTH 305 0
DWIDTH 6 0
BBX 6 17 0 0
BITMAP
78
78
FC
FC
FC
78
78
78
FC
FC
78
78
78
78
7C
7C
3C
ENDCHAR
STARTCHAR Utilde
ENCODING 360
SWIDTH 474 0
DWIDTH 9 0
BBX 8 23 1 0
BITMAP
62
FF
FE
5E
00
00
E7
E7
E7
E7
E7
E7
E7
E7
E7
E7
E7
E7
E7
E7
FF
FE
7C
ENDCHAR
STARTCHAR utilde
ENCODING 361
SWIDTH 499 0
DWIDTH 10 0
BBX 8 20 1 0
BITMAP
72
7F
FF
4E
00
E7
E7
E7
E7
E7
E7
E7
E7
E7
E7
E7
E7
FF
FF
77
ENDCHAR
STARTCHAR Umacron
ENCODING 362
SWIDTH 474 0
DWIDTH 9 0
BBX 8 21 1 0
BITMAP
7E
7E
00
00
E7
E7
E7
E7
E7
E7
E7
E7
E7
E7
E7
E7
E7
E7
FF
FE
7C
ENDCHAR
STARTCHAR umacron
ENCODING 363
SWIDTH 499 0
DWIDTH 10 0
BBX 8 18 1 0
BITMAP
7E
7E
00
E7
E7
E7
E7
E7
E7
E7
E7
E7
E7
E7
E7
FF
FF
77
ENDCHAR
STARTCHAR Ubreve
ENCODING 364
SWIDTH 474 0
DWIDTH 9 0
BBX 8 23 1 0
BITMAP
E7
FF
FE
7C
00
00
E7
E7
E7
E7
E7
E7
E7
E7
E7
E7
E7
E7
E7
E7
FF
FE
7C
ENDCHAR
STARTCHAR ubreve
ENCODING 365
SWIDTH 499 0
DWIDTH 10 0
BBX 8 20 1 0
BITMAP
E7
FF
7E
3C
00
E7
E7
E7
E7
E7
E7
E7
E7
E7
E7
E7
E7
FF
FF
77
ENDCHAR
STARTCHAR Uring
ENCODING 366
SWIDTH 474 0
DWIDTH 9 0
BBX 8 26 1 0
BITMAP
38
7E
E6
C6
E6
7E
3C
00
00
E7
E7
E7
E7
E7
E7
E7
E7
E7
E7
E7
E7
E7
E7
FF
FE
7C
ENDCHAR
STARTCHAR uring
ENCODING 367
SWIDTH 499 0
DWIDTH 10 0
BBX 8 23 1 0
BITMAP
3C
7E
66
66
66
7E
3C
00
E7
E7
E7
E7
E7
E7
E7
E7
E7
E7
E7
E7
FF
FF
77
ENDCHAR
STARTCHAR Uhungarumlaut
ENCODING 368
SWIDTH 474 0
DWIDTH 9 0
BBX 9 24 1 0
BITMAP
1B00
1B80
3F00
3600
6C00
0000
0000
E700
E700
E700
E700
E700
E700
E700
E700
E700
E700
E700
E700
E700
E700
FF00
FE00
7C00
ENDCHAR
STARTCHAR uhungarumlaut
ENCODING 369
SWIDTH 499 0
DWIDTH 10 0
BBX 9 21 1 0
BITMAP
1B00
1F80
3B00
3600
3600
0000
E700
E700
E700
E700
E700
E700
E700
E700
E700
E700
E700
E700
FF00
FF00
7700
ENDCHAR
STARTCHAR Uogonek
ENCODING 370
SWIDTH 474 0
DWIDTH 9 0
BBX 8 23 1 -6
BITMAP
E7
E7
E7
E7
E7
E7
E7
E7
E7
E7
E7
E7
E7
EF
FF
FE
7E
18
70
70
F0
7C
7C
ENDCHAR
STARTCHAR uogonek
ENCODING 371
SWIDTH 499 0
DWIDTH 10 0
BBX 8 22 1 -7
BITMAP
E7
E7
E7
E7
E7
E7
E7
E7
E7
E7
E7
E7
FF
FF
77
06
0C
1C
1C
1F
1F
07
ENDCHAR
STARTCHAR Wcircumflex
ENCODING 372
SWIDTH 712 0
DWIDTH 14 0
BBX 14 23 0 0
BITMAP
07C0
0FC0
0EE0
1EF0
0000
0000
F39C
F7BC
77BC
77BC
77B8
77B8
77B8
77B8
77B8
77F8
7FF8
3FF8
3EF8
3EF0
3EF0
3CF0
3CF0
ENDCHAR
STARTCHAR wcircumflex
ENCODING 373
SWIDTH 696 0
DWIDTH 14 0
BBX 13 20 0 0
BITMAP
0780
0FC0
0FE0
1CE0
0000
F738
77B8
77B8
77B8
77B8
77B8
77B8
77F8
7FF0
3FF0
3EF0
3EF0
3CF0
3CF0
3CF0
ENDCHAR
STARTCHAR Ycircumflex
ENCODING 374
SWIDTH 446 0
DWIDTH 9 0
BBX 9 23 0 0
BITMAP
3E00
3600
7700
F780
0000
0000
F780
F700
7700
7700
7700
7600
3E00
3E00
3E00
3E00
1C00
1C00
1C00
1C00
1C00
1C00
1C00
ENDCHAR
STARTCHAR ycircumflex
ENCODING 375
SWIDTH 461 0
DWIDTH 9 0
BBX 9 22 0 -2
BITMAP
3E00
3E00
7700
F780
0000
F380
F780
7780
7700
7700
7700
7700
7700
3600
3600
3600
3E00
3E00
3E00
3C00
FC00
FC00
ENDCHAR
STARTCHAR Ydieresis
ENCODING 376
SWIDTH 446 0
DWIDTH 9 0
BBX 9 22 0 0
BITMAP
F700
F700
F700
0000
0000
F780
F700
7700
7700
7700
7600
3E00
3E00
3E00
3E00
1C00
1C00
1C00
1C00
1C00
1C00
1C00
ENDCHAR
STARTCHAR Zacute
ENCODING 377
SWIDTH 410 0
DWIDTH 8 0
BBX 8 23 0 0
BITMAP
02
0E
3E
3E
20
00
7F
7F
7F
0F
0E
1E
1E
1C
3C
38
38
78
70
70
FF
FF
FF
ENDCHAR
STARTCHAR zacute
ENCODING 378
SWIDTH 386 0
DWIDTH 8 0
BBX 8 20 0 0
BITMAP
02
0E
3E
3E
20
FF
FF
FE
0E
1E
1C
1C
3C
38
78
78
70
FF
FF
FF
ENDCHAR
STARTCHAR Zdotaccent
ENCODING 379
SWIDTH 410 0
DWIDTH 8 0
BBX 8 22 0 0
BITMAP
1C
1C
1C
00
00
7F
7F
7F
0F
0E
1E
1E
1C
3C
38
38
78
70
70
FF
FF
FF
ENDCHAR
STARTCHAR zdotaccent
ENCODING 380
SWIDTH 386 0
DWIDTH 8 0
BBX 8 19 0 0
BITMAP
1C
1C
1C
00
FF
FF
FE
0E
1E
1C
1C
3C
38
78
78
70
FF
FF
FF
ENDCHAR
STARTCHAR Zcaron
ENCODING 381
SWIDTH 410 0
DWIDTH 8 0
BBX 9 23 0 0
BITMAP
F780
7700
7E00
3E00
0000
0000
7F00
7F00
7F00
0F00
0E00
1E00
1E00
1C00
3C00
3800
3800
7800
7000
7000
FF00
FF00
FF00
ENDCHAR
STARTCHAR zcaron
ENCODING 382
SWIDTH 386 0
DWIDTH 8 0
BBX 9 20 0 0
BITMAP
F780
7700
7E00
3E00
0000
FF00
FF00
FE00
0E00
1E00
1C00
1C00
3C00
3800
7800
7800
7000
FF00
FF00
FF00
ENDCHAR
STARTCHAR uni018F
ENCODING 399
SWIDTH 488 0
DWIDTH 10 0
BBX 8 17 1 0
BITMAP
7C
FE
FF
E7
E7
E7
07
07
FF
FF
FF
E7
E7
E7
FF
FE
3C
ENDCHAR
STARTCHAR florin
ENCODING 402
SWIDTH 303 0
DWIDTH 6 0
BBX 6 16 0 0
BITMAP
3C
7C
78
FC
FC
FC
78
78
78
78
78
78
78
78
F8
F0
ENDCHAR
STARTCHAR Ohorn
ENCODING 416
SWIDTH 490 0
DWIDTH 10 0
BBX 8 19 1 0
BITMAP
03
03
3F
FE
FF
E7
E7
E7
E7
E7
E7
E7
E7
E7
E7
E7
FF
FE
3C
ENDCHAR
STARTCHAR ohorn
ENCODING 417
SWIDTH 497 0
DWIDTH 10 0
BBX 9 17 1 0
BITMAP
0380
0300
3F00
7E00
FF00
E700
E700
E700
E700
E700
E700
E700
E700
E700
FF00
FF00
3C00
ENDCHAR
STARTCHAR Uhorn
ENCODING 431
SWIDTH 569 0
DWIDTH 11 0
BBX 10 19 1 0
BITMAP
01C0
01C0
E7C0
E780
E700
E700
E700
E700
E700
E700
E700
E700
E700
E700
E700
E700
FF00
FE00
7C00
ENDCHAR
STARTCHAR uhorn
ENCODING 432
SWIDTH 570 0
DWIDTH 11 0
BBX 10 17 1 0
BITMAP
00C0
00C0
E7C0
E780
E700
E700
E700
E700
E700
E700
E700
E700
E700
E700
FF00
FF00
7700
ENDCHAR
STARTCHAR uni01C4
ENCODING 452
SWIDTH 903 0
DWIDTH 18 0
BBX 17 23 1 0
BITMAP
007380
003B80
003F00
001E00
000000
000000
FE3F80
FF3F80
FF3F80
E70700
E70F00
E70F00
E70E00
E71E00
E71E00
E71C00
E73C00
E73C00
E73800
E77800
FF7F80
FF7F80
FE7F80
ENDCHAR
STARTCHAR uni01C5
ENCODING 453
SWIDTH 879 0
DWIDTH 18 0
BBX 17 20 1 0
BITMAP
007380
003B80
003F00
FE1E00
FF0000
FF7F00
E77F00
E77F00
E70700
E70F00
E70E00
E71E00
E71E00
E71C00
E73C00
E73C00
E73800
FF7F00
FF7F00
FE7F00
ENDCHAR
STARTCHAR uni01C6
ENCODING 454
SWIDTH 884 0
DWIDTH 18 0
BBX 18 20 1 0
BITMAP
007BC0
003B80
073F00
071E00
070000
777F80
FF7F80
FF7F00
E70700
E70F00
E70E00
E70E00
E71E00
E71C00
E73C00
E73C00
E73800
FF7F80
FF7F80
777F80
ENDCHAR
STARTCHAR uni01C7
ENCODING 455
SWIDTH 863 0
DWIDTH 17 0
BBX 16 17 1 0
BITMAP
E00F
E00F
E00F
E00F
E00F
E00F
E00F
E00F
E00F
E1EF
E1EF
E1EF
E1EF
E1EF
FFFE
FEFE
FE7C
ENDCHAR
STARTCHAR uni01C8
ENCODING 456
SWIDTH 660 0
DWIDTH 13 0
BBX 12 21 1 -2
BITMAP
00F0
00F0
E0F0
E000
E0F0
E0F0
E0F0
E0F0
E0F0
E0F0
E0F0
E0F0
E0F0
E0F0
E0F0
E0F0
FEF0
FEF0
FFE0
01E0
0080
ENDCHAR
STARTCHAR uni01C9
ENCODING 457
SWIDTH 511 0
DWIDTH 10 0
BBX 9 21 1 -2
BITMAP
0780
E780
E780
E000
E780
E780
E780
E780
E780
E780
E780
E780
E780
E780
E780
E780
E780
E780
EF00
0F00
0400
ENDCHAR
STARTCHAR uni01CA
ENCODING 458
SWIDTH 964 0
DWIDTH 19 0
BBX 18 17 1 0
BITMAP
E703C0
F703C0
F703C0
F703C0
F703C0
F703C0
FF03C0
FF03C0
FF03C0
FF7BC0
EF7BC0
EF7BC0
EF7BC0
EF7BC0
EF3F80
E73F80
E71F00
ENDCHAR
STARTCHAR uni01CB
ENCODING 459
SWIDTH 761 0
DWIDTH 15 0
BBX 14 21 1 -2
BITMAP
003C
003C
E73C
F700
F73C
F73C
F73C
F73C
FF3C
FF3C
FF3C
FF3C
EF3C
EF3C
EF3C
EF3C
EF3C
E73C
E778
0078
0020
ENDCHAR
STARTCHAR uni01CC
ENCODING 460
SWIDTH 762 0
DWIDTH 15 0
BBX 14 21 1 -2
BITMAP
003C
003C
003C
0000
EE3C
FF3C
FF3C
E73C
E73C
E73C
E73C
E73C
E73C
E73C
E73C
E73C
E73C
E73C
E778
0078
0030
ENDCHAR
STARTCHAR uni01CD
ENCODING 461
SWIDTH 485 0
DWIDTH 10 0
BBX 9 23 0 0
BITMAP
F380
7700
3F00
1E00
0000
0000
3F00
3F00
3F00
3F00
3F00
7F00
7700
7780
7780
7380
7380
7F80
7F80
7F80
7380
F380
F380
ENDCHAR
STARTCHAR uni01CE
ENCODING 462
SWIDTH 483 0
DWIDTH 10 0
BBX 9 20 0 0
BITMAP
7380
7F00
3F00
1E00
0000
3E00
7F00
7F80
7780
7780
0780
1F80
7F80
7780
F780
F780
F780
7F80
7B80
3B80
ENDCHAR
STARTCHAR uni01CF
ENCODING 463
SWIDTH 227 0
DWIDTH 5 0
BBX 9 23 -2 0
BITMAP
F780
7700
7E00
3E00
0000
0000
1C00
1C00
1C00
1C00
1C00
1C00
1C00
1C00
1C00
1C00
1C00
1C00
1C00
1C00
1C00
1C00
1C00
ENDCHAR
STARTCHAR uni01D0
ENCODING 464
SWIDTH 235 0
DWIDTH 5 0
BBX 9 20 -2 0
BITMAP
F780
7700
7E00
3E00
0000
1C00
1C00
1C00
1C00
1C00
1C00
1C00
1C00
1C00
1C00
1C00
1C00
1C00
1C00
1C00
ENDCHAR
STARTCHAR uni01D1
ENCODING 465
SWIDTH 486 0
DWIDTH 10 0
BBX 8 23 1 0
BITMAP
E7
EE
7E
3C
00
00
3C
FE
FF
E7
E7
E7
E7
E7
E7
E7
E7
E7
E7
E7
FF
FE
3C
ENDCHAR
STARTCHAR uni01D2
ENCODING 466
SWIDTH 497 0
DWIDTH 10 0
BBX 8 20 1 0
BITMAP
E7
FE
7E
3C
00
3C
7E
FF
E7
E7
E7
E7
E7
E7
E7
E7
E7
FF
FF
3C
ENDCHAR
STARTCHAR uni01D3
ENCODING 467
SWIDTH 474 0
DWIDTH 9 0
BBX 9 23 0 0
BITMAP
F780
7700
3F00
3E00
0000
0000
7380
7380
7380
7380
7380
7380
7380
7380
7380
7380
7380
7380
7380
7380
7F80
7F00
3E00
ENDCHAR
STARTCHAR uni01D4
ENCODING 468
SWIDTH 499 0
DWIDTH 10 0
BBX 8 20 1 0
BITMAP
E7
7E
7E
3C
00
E7
E7
E7
E7
E7
E7
E7
E7
E7
E7
E7
E7
FF
FF
77
ENDCHAR
STARTCHAR Gcaron
ENCODING 486
SWIDTH 485 0
DWIDTH 10 0
BBX 9 23 0 0
BITMAP
F380
7700
3F00
1E00
0000
0000
1E00
7F00
7F80
7380
7380
7380
7000
7780
7780
7780
7380
7380
7380
7380
7F80
7F80
3D80
ENDCHAR
STARTCHAR gcaron
ENCODING 487
SWIDTH 504 0
DWIDTH 10 0
BBX 9 22 0 -2
BITMAP
7380
3F00
3F00
1E00
0000
3B80
7F80
7F80
7380
7380
7380
7380
7380
7380
7380
7F80
7F80
3B80
4380
7F80
FF80
3E00
ENDCHAR
STARTCHAR uni01E8
ENCODING 488
SWIDTH 472 0
DWIDTH 9 0
BBX 9 23 1 0
BITMAP
E700
7E00
7E00
3C00
0000
0000
E700
EF00
EF00
EE00
EE00
FE00
FE00
FC00
FC00
FE00
EE00
EE00
EE00
EF00
EF00
E700
E780
ENDCHAR
STARTCHAR uni01E9
ENCODING 489
SWIDTH 491 0
DWIDTH 10 0
BBX 12 23 -2 0
BITMAP
F780
7700
3600
3E00
0000
1C00
1C00
1C00
1CE0
1DE0
1DE0
1DC0
1FC0
1FC0
1F80
1FC0
1FC0
1DC0
1DE0
1DE0
1CE0
1CF0
1CF0
ENDCHAR
STARTCHAR uni01EA
ENCODING 490
SWIDTH 486 0
DWIDTH 10 0
BBX 8 23 1 -6
BITMAP
3C
FE
FF
E7
E7
E7
E7
E7
E7
E7
E7
E7
E7
EF
FF
FE
7C
1C
38
38
3E
1E
0E
ENDCHAR
STARTCHAR uni01EB
ENCODING 491
SWIDTH 497 0
DWIDTH 10 0
BBX 8 21 1 -6
BITMAP
3C
7E
FF
E7
E7
E7
E7
E7
E7
E7
E7
E7
FF
FF
7E
1C
1C
1C
1F
1F
06
ENDCHAR
STARTCHAR uni01F0
ENCODING 496
SWIDTH 263 0
DWIDTH 5 0
BBX 8 22 -1 -2
BITMAP
E7
EE
7E
3C
00
3C
3C
3C
3C
3C
3C
3C
3C
3C
3C
3C
3C
3C
3C
78
78
30
ENDCHAR
STARTCHAR uni01F1
ENCODING 497
SWIDTH 903 0
DWIDTH 18 0
BBX 17 17 1 0
BITMAP
FE3F80
FF3F80
FF3F80
E70700
E70F00
E70F00
E70E00
E71E00
E71E00
E71C00
E73C00
E73C00
E73800
E77800
FF7F80
FF7F80
FE7F80
ENDCHAR
STARTCHAR uni01F2
ENCODING 498
SWIDTH 879 0
DWIDTH 18 0
BBX 16 17 1 0
BITMAP
FE00
FF00
FF7F
E77F
E77F
E707
E70F
E70E
E71E
E71E
E71C
E73C
E73C
E738
FF7F
FF7F
FE7F
ENDCHAR
STARTCHAR uni01F3
ENCODING 499
SWIDTH 884 0
DWIDTH 18 0
BBX 17 18 1 0
BITMAP
070000
070000
070000
777F80
FF7F80
FF7F00
E70700
E70F00
E70E00
E70E00
E71E00
E71C00
E73C00
E73C00
E73800
FF7F80
FF7F80
777F80
ENDCHAR
STARTCHAR uni01F4
ENCODING 500
SWIDTH 485 0
DWIDTH 10 0
BBX 8 23 1 0
BITMAP
04
1C
7C
7C
40
00
3C
FE
FF
E7
E7
E7
E0
EF
EF
EF
E7
E7
E7
E7
FF
FF
7B
ENDCHAR
STARTCHAR uni01F5
ENCODING 501
SWIDTH 504 0
DWIDTH 10 0
BBX 9 22 0 -2
BITMAP
0100
0600
1E00
1E00
2000
3B80
7F80
7F80
7380
7380
7380
7380
7380
7380
7380
7F80
7F80
3B80
4380
7F80
FF80
3E00
ENDCHAR
STARTCHAR uni01F8
ENCODING 504
SWIDTH 498 0
DWIDTH 10 0
BBX 8 23 1 0
BITMAP
20
38
3E
3E
02
00
E7
F7
F7
F7
F7
F7
FF
FF
FF
FF
EF
EF
EF
EF
EF
E7
E7
ENDCHAR
STARTCHAR uni01F9
ENCODING 505
SWIDTH 499 0
DWIDTH 10 0
BBX 8 20 1 0
BITMAP
40
30
3C
3C
04
EE
FF
FF
E7
E7
E7
E7
E7
E7
E7
E7
E7
E7
E7
E7
ENDCHAR
STARTCHAR Aringacute
ENCODING 506
SWIDTH 485 0
DWIDTH 10 0
BBX 9 29 0 0
BITMAP
0200
0E00
1E00
1000
1E00
3F00
3300
6300
3300
3F00
1E00
0000
3F00
3F00
3F00
3F00
3F00
7F00
7700
7780
7780
7380
7380
7F80
7F80
7F80
7380
F380
F380
ENDCHAR
STARTCHAR aringacute
ENCODING 507
SWIDTH 483 0
DWIDTH 10 0
BBX 9 26 0 0
BITMAP
0200
0E00
1E00
1000
1E00
3F00
3300
7300
3300
3F00
1E00
3E00
7F00
7F80
7780
7780
0780
1F80
7F80
7780
F780
F780
F780
7F80
7B80
3B80
ENDCHAR
STARTCHAR AEacute
ENCODING 508
SWIDTH 640 0
DWIDTH 13 0
BBX 12 23 0 0
BITMAP
0040
01C0
07C0
07C0
0400
0000
1FF0
3FF0
3FF0
3B80
3B80
3B80
3B80
7BF0
7BF0
7FF0
7F80
7F80
F380
F380
F3F0
F3F0
E3F0
ENDCHAR
STARTCHAR aeacute
ENCODING 509
SWIDTH 731 0
DWIDTH 15 0
BBX 14 20 0 0
BITMAP
0040
01C0
07C0
07C0
0400
3EF0
7FF8
7FFC
779C
079C
0FFC
3FFC
7FFC
7780
F79C
F79C
F79C
7FFC
7FF8
3CF0
ENDCHAR
STARTCHAR Oslashacute
ENCODING 510
SWIDTH 482 0
DWIDTH 10 0
BBX 8 26 1 -2
BITMAP
04
1C
7C
7C
40
02
02
7E
FE
FF
E7
E7
E7
E7
E7
E7
E7
E7
E7
E7
E7
FF
FE
7C
C0
40
ENDCHAR
STARTCHAR oslashacute
ENCODING 511
SWIDTH 483 0
DWIDTH 10 0
BBX 9 22 1 -2
BITMAP
0400
0C00
3C00
3C00
4180
3F00
7E00
FF00
E700
E700
E700
E700
E700
E700
E700
E700
E700
FF00
FF00
7C00
C000
4000
ENDCHAR
STARTCHAR uni0200
ENCODING 512
SWIDTH 485 0
DWIDTH 10 0
BBX 9 24 0 0
BITMAP
4C00
FC00
6C00
3600
3600
0000
0000
3F00
3F00
3F00
3F00
3F00
7F00
7700
7780
7780
7380
7380
7F80
7F80
7F80
7380
F380
F380
ENDCHAR
STARTCHAR uni0201
ENCODING 513
SWIDTH 483 0
DWIDTH 10 0
BBX 9 21 0 0
BITMAP
6400
FC00
6E00
3600
3600
0000
3E00
7F00
7F80
7780
7780
0780
1F80
7F80
7780
F780
F780
F780
7F80
7B80
3B80
ENDCHAR
STARTCHAR uni0202
ENCODING 514
SWIDTH 485 0
DWIDTH 10 0
BBX 9 23 0 0
BITMAP
1C00
3F00
7F00
7300
0000
0000
3F00
3F00
3F00
3F00
3F00
7F00
7700
7780
7780
7380
7380
7F80
7F80
7F80
7380
F380
F380
ENDCHAR
STARTCHAR uni0203
ENCODING 515
SWIDTH 483 0
DWIDTH 10 0
BBX 9 20 0 0
BITMAP
1C00
3F00
7F00
7380
0000
3E00
7F00
7F80
7780
7780
0780
1F80
7F80
7780
F780
F780
F780
7F80
7B80
3B80
ENDCHAR
STARTCHAR uni0204
ENCODING 516
SWIDTH 412 0
DWIDTH 8 0
BBX 9 24 -1 0
BITMAP
2400
EE00
7600
3600
1B00
0000
0000
3F80
3F80
3F80
3800
3800
3800
3F80
3F80
3F80
3800
3800
3800
3800
3800
3F80
3F80
3F80
ENDCHAR
STARTCHAR uni0205
ENCODING 517
SWIDTH 488 0
DWIDTH 10 0
BBX 9 21 0 0
BITMAP
6400
FC00
6E00
3600
3600
0000
1E00
7F80
7F80
7380
7380
7380
7F80
7F80
7000
7380
7380
7380
7F80
7F00
3E00
ENDCHAR
STARTCHAR uni0206
ENCODING 518
SWIDTH 412 0
DWIDTH 8 0
BBX 7 23 1 0
BITMAP
38
FC
FE
CE
00
00
FE
FE
FE
E0
E0
E0
FE
FE
FE
E0
E0
E0
E0
E0
FE
FE
FE
ENDCHAR
STARTCHAR uni0207
ENCODING 519
SWIDTH 488 0
DWIDTH 10 0
BBX 8 20 1 0
BITMAP
3C
7E
FF
E7
00
3C
FF
FF
E7
E7
E7
FF
FF
E0
E7
E7
E7
FF
FE
7C
ENDCHAR
STARTCHAR uni0208
ENCODING 520
SWIDTH 227 0
DWIDTH 5 0
BBX 8 24 -3 0
BITMAP
24
EC
7E
36
1B
00
00
0E
0E
0E
0E
0E
0E
0E
0E
0E
0E
0E
0E
0E
0E
0E
0E
0E
ENDCHAR
STARTCHAR uni0209
ENCODING 521
SWIDTH 235 0
DWIDTH 5 0
BBX 8 21 -3 0
BITMAP
24
EE
76
36
1B
00
0E
0E
0E
0E
0E
0E
0E
0E
0E
0E
0E
0E
0E
0E
0E
ENDCHAR
STARTCHAR uni020A
ENCODING 522
SWIDTH 227 0
DWIDTH 5 0
BBX 7 23 -1 0
BITMAP
38
FC
FE
CE
00
00
38
38
38
38
38
38
38
38
38
38
38
38
38
38
38
38
38
ENDCHAR
STARTCHAR uni020B
ENCODING 523
SWIDTH 257 0
DWIDTH 5 0
BBX 7 20 -1 0
BITMAP
38
FE
FE
C6
00
38
38
38
38
38
38
38
38
38
38
38
38
38
38
38
ENDCHAR
STARTCHAR uni020C
ENCODING 524
SWIDTH 486 0
DWIDTH 10 0
BBX 9 24 0 0
BITMAP
4C00
FC00
6C00
3600
3600
0000
0000
1E00
7F00
7F80
7380
7380
7380
7380
7380
7380
7380
7380
7380
7380
7380
7F80
7F00
1E00
ENDCHAR
STARTCHAR uni020D
ENCODING 525
SWIDTH 497 0
DWIDTH 10 0
BBX 9 21 0 0
BITMAP
6400
FC00
6E00
3600
3600
0000
1E00
3F00
7F80
7380
7380
7380
7380
7380
7380
7380
7380
7380
7F80
7F80
1E00
ENDCHAR
STARTCHAR uni020E
ENCODING 526
SWIDTH 486 0
DWIDTH 10 0
BBX 8 23 1 0
BITMAP
38
7E
FE
E6
01
00
3C
FE
FF
E7
E7
E7
E7
E7
E7
E7
E7
E7
E7
E7
FF
FE
3C
ENDCHAR
STARTCHAR uni020F
ENCODING 527
SWIDTH 497 0
DWIDTH 10 0
BBX 8 20 1 0
BITMAP
3C
7E
FF
E7
00
3C
7E
FF
E7
E7
E7
E7
E7
E7
E7
E7
E7
FF
FF
3C
ENDCHAR
STARTCHAR uni0210
ENCODING 528
SWIDTH 477 0
DWIDTH 10 0
BBX 9 24 0 0
BITMAP
4C00
FC00
6C00
7E00
3600
0000
0000
7F00
7F80
7F80
7380
7380
7380
7F80
7F00
7F00
7780
7380
7380
7380
7380
7380
7380
7380
ENDCHAR
STARTCHAR uni0211
ENCODING 529
SWIDTH 344 0
DWIDTH 7 0
BBX 8 21 -1 0
BITMAP
4C
FC
6C
76
36
00
3B
3F
3F
38
38
38
38
38
38
38
38
38
38
38
38
ENDCHAR
STARTCHAR uni0212
ENCODING 530
SWIDTH 477 0
DWIDTH 10 0
BBX 8 23 1 0
BITMAP
38
7E
FE
E6
00
00
FE
FF
FF
E7
E7
E7
FF
FE
FE
EF
E7
E7
E7
E7
E7
E7
E7
ENDCHAR
STARTCHAR uni0213
ENCODING 531
SWIDTH 342 0
DWIDTH 7 0
BBX 8 20 0 0
BITMAP
38
7E
FF
E7
00
76
7E
7E
70
70
70
70
70
70
70
70
70
70
70
70
ENDCHAR
STARTCHAR uni0214
ENCODING 532
SWIDTH 474 0
DWIDTH 9 0
BBX 9 24 0 0
BITMAP
4C00
FC00
6C00
7600
3600
0000
0000
7380
7380
7380
7380
7380
7380
7380
7380
7380
7380
7380
7380
7380
7380
7F80
7F00
3E00
ENDCHAR
STARTCHAR uni0215
ENCODING 533
SWIDTH 499 0
DWIDTH 10 0
BBX 9 21 0 0
BITMAP
6400
FC00
6E00
3600
3E00
0000
7380
7380
7380
7380
7380
7380
7380
7380
7380
7380
7380
7380
7F80
7F80
3B80
ENDCHAR
STARTCHAR uni0216
ENCODING 534
SWIDTH 474 0
DWIDTH 9 0
BBX 8 23 1 0
BITMAP
38
7E
FE
E6
00
00
E7
E7
E7
E7
E7
E7
E7
E7
E7
E7
E7
E7
E7
E7
FF
FE
7C
ENDCHAR
STARTCHAR uni0217
ENCODING 535
SWIDTH 511 0
DWIDTH 10 0
BBX 8 20 1 0
BITMAP
3C
7E
FF
E7
00
E7
E7
E7
E7
E7
E7
E7
E7
E7
E7
E7
E7
FF
FF
77
ENDCHAR
STARTCHAR Scommaaccent
ENCODING 536
SWIDTH 461 0
DWIDTH 9 0
BBX 9 23 0 -6
BITMAP
3E00
7F00
7F00
F780
F780
7800
7C00
3E00
3F00
1F00
0F80
F780
F780
F780
7F00
7F00
3E00
0000
1C00
1C00
1C00
0C00
1C00
ENDCHAR
STARTCHAR scommaaccent
ENCODING 537
SWIDTH 476 0
DWIDTH 10 0
BBX 9 21 0 -6
BITMAP
3E00
7F00
7F80
F780
F780
7C00
7E00
1F00
0F80
F780
F780
F780
7F80
7F00
3E00
0000
1E00
1E00
1E00
0C00
0C00
ENDCHAR
STARTCHAR uni021A
ENCODING 538
SWIDTH 396 0
DWIDTH 8 0
BBX 8 23 0 -6
BITMAP
FF
FF
FF
3C
3C
3C
3C
3C
3C
3C
3C
3C
3C
3C
3C
3C
3C
00
3C
3C
3C
18
18
ENDCHAR
STARTCHAR uni021B
ENCODING 539
SWIDTH 305 0
DWIDTH 6 0
BBX 6 23 0 -6
BITMAP
78
78
FC
FC
FC
78
78
78
78
78
78
78
78
78
7C
7C
3C
00
38
38
38
18
38
ENDCHAR
STARTCHAR uni021E
ENCODING 542
SWIDTH 499 0
DWIDTH 10 0
BBX 8 23 1 0
BITMAP
E7
7E
7E
3C
00
00
E7
E7
E7
E7
E7
E7
FF
FF
FF
E7
E7
E7
E7
E7
E7
E7
E7
ENDCHAR
STARTCHAR uni021F
ENCODING 543
SWIDTH 505 0
DWIDTH 10 0
BBX 11 23 -2 0
BITMAP
F780
7700
3600
3E00
0000
1C00
1C00
1C00
1DC0
1FE0
1FE0
1CE0
1CE0
1CE0
1CE0
1CE0
1CE0
1CE0
1CE0
1CE0
1CE0
1CE0
1CE0
ENDCHAR
STARTCHAR uni0226
ENCODING 550
SWIDTH 485 0
DWIDTH 10 0
BBX 9 22 0 0
BITMAP
1E00
1E00
1E00
0000
0000
3F00
3F00
3F00
3F00
3F00
7F00
7700
7780
7780
7380
7380
7F80
7F80
7F80
7380
F380
F380
ENDCHAR
STARTCHAR uni0227
ENCODING 551
SWIDTH 483 0
DWIDTH 10 0
BBX 9 19 0 0
BITMAP
1E00
1E00
1E00
0000
3E00
7F00
7F80
7780
7780
0780
1F80
7F80
7780
F780
F780
F780
7F80
7B80
3B80
ENDCHAR
STARTCHAR uni0228
ENCODING 552
SWIDTH 412 0
DWIDTH 8 0
BBX 7 23 1 -6
BITMAP
FE
FE
FE
E0
E0
E0
FE
FE
FE
E0
E0
E0
E0
E0
FE
FE
FE
18
0C
0C
3C
3C
3C
ENDCHAR
STARTCHAR uni0229
ENCODING 553
SWIDTH 488 0
DWIDTH 10 0
BBX 8 21 1 -6
BITMAP
3C
FF
FF
E7
E7
E7
FF
FF
E0
E7
E7
E7
FF
FF
7E
18
0C
0C
0E
3C
3C
ENDCHAR
STARTCHAR uni022A
ENCODING 554
SWIDTH 486 0
DWIDTH 10 0
BBX 8 24 1 0
BITMAP
7E
7E
EF
EF
EF
00
00
3C
FE
FF
E7
E7
E7
E7
E7
E7
E7
E7
E7
E7
E7
FF
FE
3C
ENDCHAR
STARTCHAR uni022B
ENCODING 555
SWIDTH 497 0
DWIDTH 10 0
BBX 8 21 1 0
BITMAP
7E
7E
E7
E7
E7
00
3C
7E
FF
E7
E7
E7
E7
E7
E7
E7
E7
E7
FF
FF
3C
ENDCHAR
STARTCHAR uni022C
ENCODING 556
SWIDTH 486 0
DWIDTH 10 0
BBX 8 24 1 0
BITMAP
7E
7E
72
FF
FE
4C
00
3C
FE
FF
E7
E7
E7
E7
E7
E7
E7
E7
E7
E7
E7
FF
FE
3C
ENDCHAR
STARTCHAR uni022D
ENCODING 557
SWIDTH 497 0
DWIDTH 10 0
BBX 8 21 1 0
BITMAP
7E
7E
72
FF
FE
4C
3C
7E
FF
E7
E7
E7
E7
E7
E7
E7
E7
E7
FF
FF
3C
ENDCHAR
STARTCHAR uni022E
ENCODING 558
SWIDTH 486 0
DWIDTH 10 0
BBX 8 22 1 0
BITMAP
3C
3C
3C
00
00
3C
FE
FF
E7
E7
E7
E7
E7
E7
E7
E7
E7
E7
E7
FF
FE
3C
ENDCHAR
STARTCHAR uni022F
ENCODING 559
SWIDTH 497 0
DWIDTH 10 0
BBX 8 19 1 0
BITMAP
3C
3C
3C
00
3C
7E
FF
E7
E7
E7
E7
E7
E7
E7
E7
E7
FF
FF
3C
ENDCHAR
STARTCHAR uni0230
ENCODING 560
SWIDTH 486 0
DWIDTH 10 0
BBX 8 24 1 0
BITMAP
7E
7E
3C
3C
3C
00
00
3C
FE
FF
E7
E7
E7
E7
E7
E7
E7
E7
E7
E7
E7
FF
FE
3C
ENDCHAR
STARTCHAR uni0231
ENCODING 561
SWIDTH 497 0
DWIDTH 10 0
BBX 8 21 1 0
BITMAP
7E
7E
3C
3C
3C
00
3C
7E
FF
E7
E7
E7
E7
E7
E7
E7
E7
E7
FF
FF
3C
ENDCHAR
STARTCHAR uni0232
ENCODING 562
SWIDTH 446 0
DWIDTH 9 0
BBX 9 21 0 0
BITMAP
7F00
7F00
0000
0000
F780
F700
7700
7700
7700
7600
3E00
3E00
3E00
3E00
1C00
1C00
1C00
1C00
1C00
1C00
1C00
ENDCHAR
STARTCHAR uni0233
ENCODING 563
SWIDTH 461 0
DWIDTH 9 0
BBX 9 20 0 -2
BITMAP
7F00
7F00
0000
F380
F780
7780
7700
7700
7700
7700
7700
3600
3600
3600
3E00
3E00
3E00
3C00
FC00
FC00
ENDCHAR
STARTCHAR uni0237
ENCODING 567
SWIDTH 263 0
DWIDTH 5 0
BBX 5 17 0 -2
BITMAP
78
78
78
78
78
78
78
78
78
78
78
78
78
78
F0
F0
60
ENDCHAR
STARTCHAR uni0259
ENCODING 601
SWIDTH 488 0
DWIDTH 10 0
BBX 8 15 1 0
BITMAP
7C
FE
FF
E7
E7
E7
07
FF
FF
E7
E7
E7
FF
FE
7C
ENDCHAR
STARTCHAR uni02BC
ENCODING 700
SWIDTH 293 0
DWIDTH 6 0
BBX 4 5 1 10
BITMAP
F0
F0
F0
70
60
ENDCHAR
STARTCHAR circumflex
ENCODING 710
SWIDTH 474 0
DWIDTH 9 0
BBX 9 4 0 16
BITMAP
3E00
3F00
7700
F780
ENDCHAR
STARTCHAR caron
ENCODING 711
SWIDTH 474 0
DWIDTH 9 0
BBX 9 4 0 16
BITMAP
F780
7700
3F00
3E00
ENDCHAR
STARTCHAR uni02C9
ENCODING 713
SWIDTH 293 0
DWIDTH 6 0
BBX 6 2 0 16
BITMAP
FC
FC
ENDCHAR
STARTCHAR breve
ENCODING 728
SWIDTH 496 0
DWIDTH 10 0
BBX 8 4 1 16
BITMAP
E7
FF
7E
3C
ENDCHAR
STARTCHAR dotaccent
ENCODING 729
SWIDTH 240 0
DWIDTH 5 0
BBX 3 3 1 16
BITMAP
E0
E0
E0
ENDCHAR
STARTCHAR ring
ENCODING 730
SWIDTH 393 0
DWIDTH 8 0
BBX 6 7 1 16
BITMAP
78
FC
CC
CC
CC
FC
78
ENDCHAR
STARTCHAR ogonek
ENCODING 731
SWIDTH 496 0
DWIDTH 10 0
BBX 5 6 3 -6
BITMAP
38
60
E0
F8
F8
78
ENDCHAR
STARTCHAR tilde
ENCODING 732
SWIDTH 496 0
DWIDTH 10 0
BBX 8 4 1 16
BITMAP
62
FF
FE
4E
ENDCHAR
STARTCHAR hungarumlaut
ENCODING 733
SWIDTH 635 0
DWIDTH 13 0
BBX 8 5 2 16
BITMAP
3E
37
7E
6C
D8
ENDCHAR
STARTCHAR gravecomb
ENCODING 768
SWIDTH 0 0
DWIDTH 0 0
BBX 4 5 -2 15
BITMAP
80
C0
F0
F0
10
ENDCHAR
STARTCHAR acutecomb
ENCODING 769
SWIDTH 0 0
DWIDTH 0 0
BBX 4 5 -2 15
BITMAP
10
30
F0
F0
80
ENDCHAR
STARTCHAR uni0302
ENCODING 770
SWIDTH 0 0
DWIDTH 0 0
BBX 8 4 -4 16
BITMAP
3C
7E
7E
E7
ENDCHAR
STARTCHAR tildecomb
ENCODING 771
SWIDTH 0 0
DWIDTH 0 0
BBX 8 4 -4 16
BITMAP
72
7F
FF
4E
ENDCHAR
STARTCHAR uni0304
ENCODING 772
SWIDTH 0 0
DWIDTH 0 0
BBX 6 2 -3 16
BITMAP
FC
FC
ENDCHAR
STARTCHAR uni0306
ENCODING 774
SWIDTH 0 0
DWIDTH 0 0
BBX 8 4 -4 16
BITMAP
E7
FF
7E
3C
ENDCHAR
STARTCHAR uni0307
ENCODING 775
SWIDTH 0 0
DWIDTH 0 0
BBX 4 3 -2 16
BITMAP
F0
F0
F0
ENDCHAR
STARTCHAR uni0308
ENCODING 776
SWIDTH 0 0
DWIDTH 0 0
BBX 8 3 -4 16
BITMAP
E7
E7
E7
ENDCHAR
STARTCHAR hookabovecomb
ENCODING 777
SWIDTH 0 0
DWIDTH 0 0
BBX 5 5 -2 16
BITMAP
F0
F8
38
30
70
ENDCHAR
STARTCHAR uni030A
ENCODING 778
SWIDTH 0 0
DWIDTH 0 0
BBX 6 7 -3 16
BITMAP
78
FC
CC
CC
CC
FC
78
ENDCHAR
STARTCHAR uni030B
ENCODING 779
SWIDTH 0 0
DWIDTH 0 0
BBX 8 5 -4 16
BITMAP
37
76
6E
6C
D8
ENDCHAR
STARTCHAR uni030C
ENCODING 780
SWIDTH 0 0
DWIDTH 0 0
BBX 8 4 -4 16
BITMAP
E7
7E
7E
3C
ENDCHAR
STARTCHAR uni030F
ENCODING 783
SWIDTH 0 0
DWIDTH 0 0
BBX 7 5 -5 16
BITMAP
64
FC
6E
36
3E
ENDCHAR
STARTCHAR uni0311
ENCODING 785
SWIDTH 0 0
DWIDTH 0 0
BBX 8 4 -4 16
BITMAP
3C
7E
7E
E7
ENDCHAR
STARTCHAR uni031B
ENCODING 795
SWIDTH 0 0
DWIDTH 0 0
BBX 5 5 0 15
BITMAP
38
38
38
F0
E0
ENDCHAR
STARTCHAR dotbelowcomb
ENCODING 803
SWIDTH 0 0
DWIDTH 0 0
BBX 4 3 -2 -4
BITMAP
F0
F0
F0
ENDCHAR
STARTCHAR uni0324
ENCODING 804
SWIDTH 0 0
DWIDTH 0 0
BBX 8 3 -4 -4
BITMAP
E7
E7
E7
ENDCHAR
STARTCHAR uni0326
ENCODING 806
SWIDTH 0 0
DWIDTH 0 0
BBX 4 5 -2 -6
BITMAP
F0
F0
F0
60
60
ENDCHAR
STARTCHAR uni0327
ENCODING 807
SWIDTH 0 0
DWIDTH 0 0
BBX 5 6 -2 -6
BITMAP
60
30
30
F8
F8
F0
ENDCHAR
STARTCHAR uni0328
ENCODING 808
SWIDTH 0 0
DWIDTH 0 0
BBX 5 6 -3 -6
BITMAP
70
E0
E0
F8
F8
78
ENDCHAR
STARTCHAR uni032E
ENCODING 814
SWIDTH 0 0
DWIDTH 0 0
BBX 8 4 -4 -4
BITMAP
E7
FF
7E
3C
ENDCHAR
STARTCHAR uni0331
ENCODING 817
SWIDTH 0 0
DWIDTH 0 0
BBX 6 2 -3 -2
BITMAP
FC
FC
ENDCHAR
STARTCHAR uni0335
ENCODING 821
SWIDTH 0 0
DWIDTH 0 0
BBX 6 3 -3 6
BITMAP
FC
FC
FC
ENDCHAR
STARTCHAR uni0394
ENCODING 916
SWIDTH 539 0
DWIDTH 11 0
BBX 10 17 0 0
BITMAP
1F00
1F00
3F00
3F00
3F80
3B80
3380
3380
3380
7380
7380
73C0
73C0
73C0
73C0
7FC0
FFC0
ENDCHAR
STARTCHAR Sigma
ENCODING 931
SWIDTH 408 0
DWIDTH 8 0
BBX 7 18 1 -1
BITMAP
FE
FE
FE
E0
70
70
38
38
1C
1C
38
38
70
70
E0
FE
FE
FE
ENDCHAR
STARTCHAR pi
ENCODING 960
SWIDTH 606 0
DWIDTH 12 0
BBX 12 15 0 0
BITMAP
FFF0
FFF0
FFF0
39C0
39C0
39C0
39C0
39C0
39C0
39C0
39C0
39C0
39C0
39C0
39C0
ENDCHAR
STARTCHAR uni10E2
ENCODING 4322
SWIDTH 640 0
DWIDTH 13 0
BBX 12 21 0 0
BITMAP
07E0
07E0
0000
0000
1FF0
3FF0
3FF0
3B80
3B80
3B80
3B80
7BF0
7BF0
7FF0
7F80
7F80
F380
F380
F3F0
F3F0
E3F0
ENDCHAR
STARTCHAR uni10E3
ENCODING 4323
SWIDTH 731 0
DWIDTH 15 0
BBX 14 18 0 0
BITMAP
0FE0
0FE0
0000
3EF0
7FF8
7FFC
779C
079C
0FFC
3FFC
7FFC
7780
F79C
F79C
F79C
7FFC
7FF8
3CF0
ENDCHAR
STARTCHAR uni1E02
ENCODING 7682
SWIDTH 479 0
DWIDTH 10 0
BBX 8 22 1 0
BITMAP
38
38
38
00
00
FE
FF
FF
E7
E7
E7
FF
FC
FF
E7
E7
E7
E7
E7
FF
FE
FE
ENDCHAR
STARTCHAR uni1E03
ENCODING 7683
SWIDTH 501 0
DWIDTH 10 0
BBX 8 22 1 0
BITMAP
E0
E0
E0
00
E0
E0
E0
EE
FF
FF
E7
E7
E7
E7
E7
E7
E7
E7
E7
FF
FF
EE
ENDCHAR
STARTCHAR uni1E0A
ENCODING 7690
SWIDTH 493 0
DWIDTH 10 0
BBX 8 22 1 0
BITMAP
3C
3C
3C
00
00
FE
FF
FF
E7
E7
E7
E7
E7
E7
E7
E7
E7
E7
E7
FF
FF
FE
ENDCHAR
STARTCHAR uni1E0B
ENCODING 7691
SWIDTH 498 0
DWIDTH 10 0
BBX 8 22 1 0
BITMAP
07
07
07
00
07
07
07
77
FF
FF
E7
E7
E7
E7
E7
E7
E7
E7
E7
FF
FF
77
ENDCHAR
STARTCHAR uni1E1E
ENCODING 7710
SWIDTH 399 0
DWIDTH 8 0
BBX 7 22 1 0
BITMAP
38
38
38
00
00
FE
FE
FE
E0
E0
E0
FC
FC
FC
E0
E0
E0
E0
E0
E0
E0
E0
ENDCHAR
STARTCHAR uni1E1F
ENCODING 7711
SWIDTH 280 0
DWIDTH 6 0
BBX 5 22 0 0
BITMAP
78
78
78
00
38
78
78
70
F8
F8
F8
78
78
78
78
78
78
78
78
78
78
78
ENDCHAR
STARTCHAR uni1E40
ENCODING 7744
SWIDTH 746 0
DWIDTH 15 0
BBX 13 22 1 0
BITMAP
0700
0700
0700
0000
0000
F8F8
F8F8
F8F8
F9F8
FDF8
FDF8
FDF8
FDF8
FDB8
EDB8
EFB8
EFB8
EFB8
EFB8
E738
E738
E738
ENDCHAR
STARTCHAR uni1E41
ENCODING 7745
SWIDTH 758 0
DWIDTH 15 0
BBX 14 19 1 0
BITMAP
0700
0700
0700
0000
EE70
FFF8
FFF8
E738
E73C
E738
E738
E738
E738
E738
E738
E738
E738
E738
E738
ENDCHAR
STARTCHAR uni1E56
ENCODING 7766
SWIDTH 472 0
DWIDTH 9 0
BBX 8 22 1 0
BITMAP
38
38
38
00
00
FC
FE
FF
E7
E7
E7
E7
FF
FE
FE
E0
E0
E0
E0
E0
E0
E0
ENDCHAR
STARTCHAR uni1E57
ENCODING 7767
SWIDTH 500 0
DWIDTH 10 0
BBX 8 22 1 -3
BITMAP
3C
3C
3C
00
EE
FF
FF
E7
E7
E7
E7
E7
E7
E7
E7
E7
FF
FF
EE
E0
E0
E0
ENDCHAR
STARTCHAR uni1E60
ENCODING 7776
SWIDTH 461 0
DWIDTH 9 0
BBX 9 22 0 0
BITMAP
1C00
1C00
1C00
0000
0000
3E00
7F00
7F00
F780
F780
7800
7C00
3E00
3F00
1F00
0F80
F780
F780
F780
7F00
7F00
3E00
ENDCHAR
STARTCHAR uni1E61
ENCODING 7777
SWIDTH 475 0
DWIDTH 10 0
BBX 9 19 0 0
BITMAP
1E00
1E00
1E00
0000
3E00
7F00
7F80
F780
F780
7C00
7E00
1F00
0F80
F780
F780
F780
7F80
7F00
3E00
ENDCHAR
STARTCHAR uni1E6A
ENCODING 7786
SWIDTH 396 0
DWIDTH 8 0
BBX 8 22 0 0
BITMAP
3C
3C
3C
00
00
FF
FF
FF
3C
3C
3C
3C
3C
3C
3C
3C
3C
3C
3C
3C
3C
3C
ENDCHAR
STARTCHAR uni1E6B
ENCODING 7787
SWIDTH 305 0
DWIDTH 6 0
BBX 6 22 0 0
BITMAP
78
78
78
00
00
78
78
FC
FC
FC
78
78
78
78
78
78
78
78
78
7C
7C
3C
ENDCHAR
STARTCHAR Wgrave
ENCODING 7808
SWIDTH 712 0
DWIDTH 14 0
BBX 14 23 0 0
BITMAP
0400
0700
07C0
07C0
0040
0000
F39C
F7BC
77BC
77BC
77B8
77B8
77B8
77B8
77B8
77F8
7FF8
3FF8
3EF8
3EF0
3EF0
3CF0
3CF0
ENDCHAR
STARTCHAR wgrave
ENCODING 7809
SWIDTH 696 0
DWIDTH 14 0
BBX 13 20 0 0
BITMAP
0800
0600
0780
0780
0040
F738
77B8
77B8
77B8
77B8
77B8
77B8
77F8
7FF0
3FF0
3EF0
3EF0
3CF0
3CF0
3CF0
ENDCHAR
STARTCHAR Wacute
ENCODING 7810
SWIDTH 712 0
DWIDTH 14 0
BBX 14 23 0 0
BITMAP
0040
01C0
07C0
07C0
0400
0000
F39C
F7BC
77BC
77BC
77B8
77B8
77B8
77B8
77B8
77F8
7FF8
3FF8
3EF8
3EF0
3EF0
3CF0
3CF0
ENDCHAR
STARTCHAR wacute
ENCODING 7811
SWIDTH 696 0
DWIDTH 14 0
BBX 13 20 0 0
BITMAP
0040
0180
0780
0780
0400
F738
77B8
77B8
77B8
77B8
77B8
77B8
77F8
7FF0
3FF0
3EF0
3EF0
3CF0
3CF0
3CF0
ENDCHAR
STARTCHAR Wdieresis
ENCODING 7812
SWIDTH 712 0
DWIDTH 14 0
BBX 14 22 0 0
BITMAP
1EE0
1EE0
1EE0
0000
0000
F39C
F7BC
77BC
77BC
77B8
77B8
77B8
77B8
77B8
77F8
7FF8
3FF8
3EF8
3EF0
3EF0
3CF0
3CF0
ENDCHAR
STARTCHAR wdieresis
ENCODING 7813
SWIDTH 696 0
DWIDTH 14 0
BBX 13 19 0 0
BITMAP
1CE0
1CE0
1CE0
0000
F738
77B8
77B8
77B8
77B8
77B8
77B8
77F8
7FF0
3FF0
3EF0
3EF0
3CF0
3CF0
3CF0
ENDCHAR
STARTCHAR uni1E9E
ENCODING 7838
SWIDTH 498 0
DWIDTH 10 0
BBX 8 18 1 0
BITMAP
7E
FF
FF
E7
E7
EE
EE
EE
EF
EF
E7
E7
E7
E7
E7
EF
EF
EE
ENDCHAR
STARTCHAR uni1EA0
ENCODING 7840
SWIDTH 485 0
DWIDTH 10 0
BBX 9 21 0 -4
BITMAP
3F00
3F00
3F00
3F00
3F00
7F00
7700
7780
7780
7380
7380
7F80
7F80
7F80
7380
F380
F380
0000
1E00
1E00
1E00
ENDCHAR
STARTCHAR uni1EA1
ENCODING 7841
SWIDTH 483 0
DWIDTH 10 0
BBX 9 19 0 -4
BITMAP
3E00
7F00
7F80
7780
7780
0780
1F80
7F80
7780
F780
F780
F780
7F80
7B80
3B80
0000
1E00
1E00
1E00
ENDCHAR
STARTCHAR uni1EA2
ENCODING 7842
SWIDTH 485 0
DWIDTH 10 0
BBX 9 24 0 0
BITMAP
1C00
1E00
0600
0600
0C00
0000
0000
3F00
3F00
3F00
3F00
3F00
7F00
7700
7780
7780
7380
7380
7F80
7F80
7F80
7380
F380
F380
ENDCHAR
STARTCHAR uni1EA3
ENCODING 7843
SWIDTH 483 0
DWIDTH 10 0
BBX 9 21 0 0
BITMAP
1C00
1E00
0600
0600
0C00
0000
3E00
7F00
7F80
7780
7780
0780
1F80
7F80
7780
F780
F780
F780
7F80
7B80
3B80
ENDCHAR
STARTCHAR uni1EA4
ENCODING 7844
SWIDTH 485 0
DWIDTH 10 0
BBX 12 22 0 0
BITMAP
0070
1CC0
3E00
7380
0000
3F00
3F00
3F00
3F00
3F00
7F00
7700
7780
7780
7380
7380
7F80
7F80
7F80
7380
F380
F380
ENDCHAR
STARTCHAR uni1EA5
ENCODING 7845
SWIDTH 483 0
DWIDTH 10 0
BBX 13 21 0 0
BITMAP
0078
0060
1EC0
3F00
7380
0000
3E00
7F00
7F80
7780
7780
0780
1F80
7F80
7780
F780
F780
F780
7F80
7B80
3B80
ENDCHAR
STARTCHAR uni1EA6
ENCODING 7846
SWIDTH 485 0
DWIDTH 10 0
BBX 11 22 0 0
BITMAP
03C0
1EE0
3F00
4080
0000
3F00
3F00
3F00
3F00
3F00
7F00
7700
7780
7780
7380
7380
7F80
7F80
7F80
7380
F380
F380
ENDCHAR
STARTCHAR uni1EA7
ENCODING 7847
SWIDTH 483 0
DWIDTH 10 0
BBX 11 21 0 0
BITMAP
03C0
00C0
1EE0
3F00
7380
0000
3E00
7F00
7F80
7780
7780
0780
1F80
7F80
7780
F780
F780
F780
7F80
7B80
3B80
ENDCHAR
STARTCHAR uni1EA8
ENCODING 7848
SWIDTH 485 0
DWIDTH 10 0
BBX 10 22 0 0
BITMAP
01C0
1C40
3E80
7780
0000
3F00
3F00
3F00
3F00
3F00
7F00
7700
7780
7780
7380
7380
7F80
7F80
7F80
7380
F380
F380
ENDCHAR
STARTCHAR uni1EA9
ENCODING 7849
SWIDTH 483 0
DWIDTH 10 0
BBX 11 23 0 0
BITMAP
01C0
01E0
0060
00E0
1FC0
3F00
7380
0000
3E00
7F00
7F80
7780
7780
0780
1F80
7F80
7780
F780
F780
F780
7F80
7B80
3B80
ENDCHAR
STARTCHAR uni1EAA
ENCODING 7850
SWIDTH 485 0
DWIDTH 10 0
BBX 9 24 0 0
BITMAP
1200
3F00
2600
1C00
3E00
7780
0000
3F00
3F00
3F00
3F00
3F00
7F00
7700
7780
7780
7380
7380
7F80
7F80
7F80
7380
F380
F380
ENDCHAR
STARTCHAR uni1EAB
ENCODING 7851
SWIDTH 483 0
DWIDTH 10 0
BBX 9 23 0 0
BITMAP
3900
7F80
7F00
0600
1E00
3F00
7380
0000
3E00
7F00
7F80
7780
7780
0780
1F80
7F80
7780
F780
F780
F780
7F80
7B80
3B80
ENDCHAR
STARTCHAR uni1EAC
ENCODING 7852
SWIDTH 485 0
DWIDTH 10 0
BBX 9 26 0 -4
BITMAP
1E00
3F00
7780
8000
0000
3F00
3F00
3F00
3F00
3F00
7F00
7700
7780
7780
7380
7380
7F80
7F80
7F80
7380
F380
F380
0000
1E00
1E00
1E00
ENDCHAR
STARTCHAR uni1EAD
ENCODING 7853
SWIDTH 483 0
DWIDTH 10 0
BBX 9 24 0 -4
BITMAP
1E00
3F00
7F00
7380
0000
3E00
7F00
7F80
7780
7780
0780
1F80
7F80
7780
F780
F780
F780
7F80
7B80
3B80
0000
1E00
1E00
1E00
ENDCHAR
STARTCHAR uni1EAE
ENCODING 7854
SWIDTH 485 0
DWIDTH 10 0
BBX 9 24 0 0
BITMAP
0200
0E00
1C00
2300
3F00
1E00
0000
3F00
3F00
3F00
3F00
3F00
7F00
7700
7780
7780
7380
7380
7F80
7F80
7F80
7380
F380
F380
ENDCHAR
STARTCHAR uni1EAF
ENCODING 7855
SWIDTH 483 0
DWIDTH 10 0
BBX 9 23 0 0
BITMAP
0200
0E00
1E00
1000
7380
7F00
3E00
0000
3E00
7F00
7F80
7780
7780
0780
1F80
7F80
7780
F780
F780
F780
7F80
7B80
3B80
ENDCHAR
STARTCHAR uni1EB0
ENCODING 7856
SWIDTH 485 0
DWIDTH 10 0
BBX 9 24 0 0
BITMAP
1000
1C00
0E00
2300
3F00
1E00
0000
3F00
3F00
3F00
3F00
3F00
7F00
7700
7780
7780
7380
7380
7F80
7F80
7F80
7380
F380
F380
ENDCHAR
STARTCHAR uni1EB1
ENCODING 7857
SWIDTH 483 0
DWIDTH 10 0
BBX 9 23 0 0
BITMAP
1800
1E00
1E00
0000
7380
7F00
3E00
0000
3E00
7F00
7F80
7780
7780
0780
1F80
7F80
7780
F780
F780
F780
7F80
7B80
3B80
ENDCHAR
STARTCHAR uni1EB2
ENCODING 7858
SWIDTH 485 0
DWIDTH 10 0
BBX 9 24 0 0
BITMAP
0C00
0600
0C00
3300
3F00
1E00
0000
3F00
3F00
3F00
3F00
3F00
7F00
7700
7780
7780
7380
7380
7F80
7F80
7F80
7380
F380
F380
ENDCHAR
STARTCHAR uni1EB3
ENCODING 7859
SWIDTH 483 0
DWIDTH 10 0
BBX 9 25 0 0
BITMAP
1C00
1E00
0600
0600
0E00
0800
7380
7F00
3E00
0000
3E00
7F00
7F80
7780
7780
0780
1F80
7F80
7780
F780
F780
F780
7F80
7B80
3B80
ENDCHAR
STARTCHAR uni1EB4
ENCODING 7860
SWIDTH 485 0
DWIDTH 10 0
BBX 9 24 0 0
BITMAP
1A00
3F00
2600
3300
3F00
1E00
0000
3F00
3F00
3F00
3F00
3F00
7F00
7700
7780
7780
7380
7380
7F80
7F80
7F80
7380
F380
F380
ENDCHAR
STARTCHAR uni1EB5
ENCODING 7861
SWIDTH 483 0
DWIDTH 10 0
BBX 9 23 0 0
BITMAP
3900
7F80
7F00
0600
7380
7F00
3E00
0000
3E00
7F00
7F80
7780
7780
0780
1F80
7F80
7780
F780
F780
F780
7F80
7B80
3B80
ENDCHAR
STARTCHAR uni1EB6
ENCODING 7862
SWIDTH 485 0
DWIDTH 10 0
BBX 9 26 0 -4
BITMAP
7380
7F00
3E00
0000
0000
3F00
3F00
3F00
3F00
3F00
7F00
7700
7780
7780
7380
7380
7F80
7F80
7F80
7380
F380
F380
0000
1E00
1E00
1E00
ENDCHAR
STARTCHAR uni1EB7
ENCODING 7863
SWIDTH 483 0
DWIDTH 10 0
BBX 9 24 0 -4
BITMAP
7380
7F80
3F00
1E00
0000
3E00
7F00
7F80
7780
7780
0780
1F80
7F80
7780
F780
F780
F780
7F80
7B80
3B80
0000
1E00
1E00
1E00
ENDCHAR
STARTCHAR uni1EB8
ENCODING 7864
SWIDTH 412 0
DWIDTH 8 0
BBX 7 21 1 -4
BITMAP
FE
FE
FE
E0
E0
E0
FE
FE
FE
E0
E0
E0
E0
E0
FE
FE
FE
00
38
38
38
ENDCHAR
STARTCHAR uni1EB9
ENCODING 7865
SWIDTH 488 0
DWIDTH 10 0
BBX 8 19 1 -4
BITMAP
3C
FF
FF
E7
E7
E7
FF
FF
E0
E7
E7
E7
FF
FE
7C
00
3C
3C
3C
ENDCHAR
STARTCHAR uni1EBA
ENCODING 7866
SWIDTH 412 0
DWIDTH 8 0
BBX 7 24 1 0
BITMAP
78
78
1C
18
38
00
00
FE
FE
FE
E0
E0
E0
FE
FE
FE
E0
E0
E0
E0
E0
FE
FE
FE
ENDCHAR
STARTCHAR uni1EBB
ENCODING 7867
SWIDTH 488 0
DWIDTH 10 0
BBX 8 21 1 0
BITMAP
3C
3E
0E
0C
1C
00
3C
FF
FF
E7
E7
E7
FF
FF
E0
E7
E7
E7
FF
FE
7C
ENDCHAR
STARTCHAR uni1EBC
ENCODING 7868
SWIDTH 412 0
DWIDTH 8 0
BBX 8 23 0 0
BITMAP
32
7F
FF
4E
00
00
7F
7F
7F
70
70
70
7F
7F
7F
70
70
70
70
70
7F
7F
7F
ENDCHAR
STARTCHAR uni1EBD
ENCODING 7869
SWIDTH 488 0
DWIDTH 10 0
BBX 8 20 1 0
BITMAP
72
7F
FE
4E
00
3C
FF
FF
E7
E7
E7
FF
FF
E0
E7
E7
E7
FF
FE
7C
ENDCHAR
STARTCHAR uni1EBE
ENCODING 7870
SWIDTH 412 0
DWIDTH 8 0
BBX 11 22 0 0
BITMAP
00E0
1DC0
3E00
F700
0000
7F00
7F00
7F00
7000
7000
7000
7F00
7F00
7F00
7000
7000
7000
7000
7000
7F00
7F00
7F00
ENDCHAR
STARTCHAR uni1EBF
ENCODING 7871
SWIDTH 488 0
DWIDTH 10 0
BBX 12 21 1 0
BITMAP
00F0
00C0
3DC0
7E00
E700
0000
3C00
FF00
FF00
E700
E700
E700
FF00
FF00
E000
E700
E700
E700
FF00
FE00
7C00
ENDCHAR
STARTCHAR uni1EC0
ENCODING 7872
SWIDTH 412 0
DWIDTH 8 0
BBX 10 22 0 0
BITMAP
0380
3DC0
7E00
8100
0000
7F00
7F00
7F00
7000
7000
7000
7F00
7F00
7F00
7000
7000
7000
7000
7000
7F00
7F00
7F00
ENDCHAR
STARTCHAR uni1EC1
ENCODING 7873
SWIDTH 488 0
DWIDTH 10 0
BBX 10 21 1 0
BITMAP
0780
0180
3DC0
7E00
E700
0000
3C00
FF00
FF00
E700
E700
E700
FF00
FF00
E000
E700
E700
E700
FF00
FE00
7C00
ENDCHAR
STARTCHAR uni1EC2
ENCODING 7874
SWIDTH 412 0
DWIDTH 8 0
BBX 10 22 0 0
BITMAP
0180
1CC0
3F80
F700
0000
7F00
7F00
7F00
7000
7000
7000
7F00
7F00
7F00
7000
7000
7000
7000
7000
7F00
7F00
7F00
ENDCHAR
STARTCHAR uni1EC3
ENCODING 7875
SWIDTH 488 0
DWIDTH 10 0
BBX 10 23 1 0
BITMAP
0380
03C0
00C0
01C0
3F80
7E00
E700
0000
3C00
FF00
FF00
E700
E700
E700
FF00
FF00
E000
E700
E700
E700
FF00
FE00
7C00
ENDCHAR
STARTCHAR uni1EC4
ENCODING 7876
SWIDTH 412 0
DWIDTH 8 0
BBX 8 24 0 0
BITMAP
32
7E
2E
1C
3E
F7
00
7F
7F
7F
70
70
70
7F
7F
7F
70
70
70
70
70
7F
7F
7F
ENDCHAR
STARTCHAR uni1EC5
ENCODING 7877
SWIDTH 488 0
DWIDTH 10 0
BBX 8 23 1 0
BITMAP
72
FF
FE
06
3C
7E
E7
00
3C
FF
FF
E7
E7
E7
FF
FF
E0
E7
E7
E7
FF
FE
7C
ENDCHAR
STARTCHAR uni1EC6
ENCODING 7878
SWIDTH 412 0
DWIDTH 8 0
BBX 9 26 0 -4
BITMAP
3C00
7E00
F780
0000
0000
7F00
7F00
7F00
7000
7000
7000
7F00
7F00
7F00
7000
7000
7000
7000
7000
7F00
7F00
7F00
0000
1C00
1C00
1C00
ENDCHAR
STARTCHAR uni1EC7
ENCODING 7879
SWIDTH 488 0
DWIDTH 10 0
BBX 8 24 1 -4
BITMAP
3C
7E
7E
E7
00
3C
FF
FF
E7
E7
E7
FF
FF
E0
E7
E7
E7
FF
FE
7C
00
3C
3C
3C
ENDCHAR
STARTCHAR uni1EC8
ENCODING 7880
SWIDTH 227 0
DWIDTH 5 0
BBX 5 24 0 0
BITMAP
F0
F8
38
30
70
00
00
70
70
70
70
70
70
70
70
70
70
70
70
70
70
70
70
70
ENDCHAR
STARTCHAR uni1EC9
ENCODING 7881
SWIDTH 235 0
DWIDTH 5 0
BBX 4 21 1 0
BITMAP
E0
F0
70
70
E0
00
E0
E0
E0
E0
E0
E0
E0
E0
E0
E0
E0
E0
E0
E0
E0
ENDCHAR
STARTCHAR uni1ECA
ENCODING 7882
SWIDTH 227 0
DWIDTH 5 0
BBX 3 21 1 -4
BITMAP
E0
E0
E0
E0
E0
E0
E0
E0
E0
E0
E0
E0
E0
E0
E0
E0
E0
00
E0
E0
E0
ENDCHAR
STARTCHAR uni1ECB
ENCODING 7883
SWIDTH 243 0
DWIDTH 5 0
BBX 3 23 1 -4
BITMAP
E0
E0
E0
00
E0
E0
E0
E0
E0
E0
E0
E0
E0
E0
E0
E0
E0
E0
E0
00
E0
E0
E0
ENDCHAR
STARTCHAR uni1ECC
ENCODING 7884
SWIDTH 486 0
DWIDTH 10 0
BBX 8 21 1 -4
BITMAP
3C
FE
FF
E7
E7
E7
E7
E7
E7
E7
E7
E7
E7
E7
FF
FE
3C
00
3C
3C
3C
ENDCHAR
STARTCHAR uni1ECD
ENCODING 7885
SWIDTH 497 0
DWIDTH 10 0
BBX 8 19 1 -4
BITMAP
3C
7E
FF
E7
E7
E7
E7
E7
E7
E7
E7
E7
FF
FF
3C
00
3C
3C
3C
ENDCHAR
STARTCHAR uni1ECE
ENCODING 7886
SWIDTH 486 0
DWIDTH 10 0
BBX 8 24 1 0
BITMAP
38
3C
0C
0C
18
00
00
3C
FE
FF
E7
E7
E7
E7
E7
E7
E7
E7
E7
E7
E7
FF
FE
3C
ENDCHAR
STARTCHAR uni1ECF
ENCODING 7887
SWIDTH 497 0
DWIDTH 10 0
BBX 8 21 1 0
BITMAP
3C
3C
0E
0C
1C
00
3C
7E
FF
E7
E7
E7
E7
E7
E7
E7
E7
E7
FF
FF
3C
ENDCHAR
STARTCHAR uni1ED0
ENCODING 7888
SWIDTH 486 0
DWIDTH 10 0
BBX 11 22 1 0
BITMAP
00E0
3980
7C00
E700
0000
3C00
FE00
FF00
E700
E700
E700
E700
E700
E700
E700
E700
E700
E700
E700
FF00
FE00
3C00
ENDCHAR
STARTCHAR uni1ED1
ENCODING 7889
SWIDTH 497 0
DWIDTH 10 0
BBX 12 21 1 0
BITMAP
00F0
00C0
3D80
7E00
E700
0000
3C00
7E00
FF00
E700
E700
E700
E700
E700
E700
E700
E700
E700
FF00
FF00
3C00
ENDCHAR
STARTCHAR uni1ED2
ENCODING 7890
SWIDTH 486 0
DWIDTH 10 0
BBX 10 22 1 0
BITMAP
0780
3DC0
7E00
8100
0000
3C00
FE00
FF00
E700
E700
E700
E700
E700
E700
E700
E700
E700
E700
E700
FF00
FE00
3C00
ENDCHAR
STARTCHAR uni1ED3
ENCODING 7891
SWIDTH 497 0
DWIDTH 10 0
BBX 10 21 1 0
BITMAP
0780
0180
3DC0
7E00
E700
0000
3C00
7E00
FF00
E700
E700
E700
E700
E700
E700
E700
E700
E700
FF00
FF00
3C00
ENDCHAR
STARTCHAR uni1ED4
ENCODING 7892
SWIDTH 486 0
DWIDTH 10 0
BBX 9 22 1 0
BITMAP
0380
3880
7D00
EF00
0000
3C00
FE00
FF00
E700
E700
E700
E700
E700
E700
E700
E700
E700
E700
E700
FF00
FE00
3C00
ENDCHAR
STARTCHAR uni1ED5
ENCODING 7893
SWIDTH 497 0
DWIDTH 10 0
BBX 10 23 1 0
BITMAP
0380
03C0
00C0
01C0
3F80
7E00
E700
0000
3C00
7E00
FF00
E700
E700
E700
E700
E700
E700
E700
E700
E700
FF00
FF00
3C00
ENDCHAR
STARTCHAR uni1ED6
ENCODING 7894
SWIDTH 486 0
DWIDTH 10 0
BBX 8 24 1 0
BITMAP
24
7E
4C
38
7C
EF
00
3C
FE
FF
E7
E7
E7
E7
E7
E7
E7
E7
E7
E7
E7
FF
FE
3C
ENDCHAR
STARTCHAR uni1ED7
ENCODING 7895
SWIDTH 497 0
DWIDTH 10 0
BBX 8 23 1 0
BITMAP
72
FF
FE
04
3C
7E
E7
00
3C
7E
FF
E7
E7
E7
E7
E7
E7
E7
E7
E7
FF
FF
3C
ENDCHAR
STARTCHAR uni1ED8
ENCODING 7896
SWIDTH 486 0
DWIDTH 10 0
BBX 8 26 1 -4
BITMAP
3C
7E
EF
00
00
3C
FE
FF
E7
E7
E7
E7
E7
E7
E7
E7
E7
E7
E7
FF
FE
3C
00
3C
3C
3C
ENDCHAR
STARTCHAR uni1ED9
ENCODING 7897
SWIDTH 497 0
DWIDTH 10 0
BBX 8 24 1 -4
BITMAP
3C
7E
FE
E7
00
3C
7E
FF
E7
E7
E7
E7
E7
E7
E7
E7
E7
FF
FF
3C
00
3C
3C
3C
ENDCHAR
STARTCHAR uni1EDA
ENCODING 7898
SWIDTH 490 0
DWIDTH 10 0
BBX 8 23 1 0
BITMAP
04
1C
3C
20
03
03
3F
FE
FF
E7
E7
E7
E7
E7
E7
E7
E7
E7
E7
E7
FF
FE
3C
ENDCHAR
STARTCHAR uni1EDB
ENCODING 7899
SWIDTH 497 0
DWIDTH 10 0
BBX 9 21 1 0
BITMAP
0400
0C00
3C00
3C00
4380
0300
3F00
7E00
FF00
E700
E700
E700
E700
E700
E700
E700
E700
E700
FF00
FF00
3C00
ENDCHAR
STARTCHAR uni1EDC
ENCODING 7900
SWIDTH 490 0
DWIDTH 10 0
BBX 8 23 1 0
BITMAP
40
38
3C
0C
03
03
3F
FE
FF
E7
E7
E7
E7
E7
E7
E7
E7
E7
E7
E7
FF
FE
3C
ENDCHAR
STARTCHAR uni1EDD
ENCODING 7901
SWIDTH 497 0
DWIDTH 10 0
BBX 9 21 1 0
BITMAP
4000
3000
3C00
3C00
0380
0300
3F00
7E00
FF00
E700
E700
E700
E700
E700
E700
E700
E700
E700
FF00
FF00
3C00
ENDCHAR
STARTCHAR uni1EDE
ENCODING 7902
SWIDTH 490 0
DWIDTH 10 0
BBX 8 24 1 0
BITMAP
38
3C
0C
0C
18
03
03
3F
FE
FF
E7
E7
E7
E7
E7
E7
E7
E7
E7
E7
E7
FF
FE
3C
ENDCHAR
STARTCHAR uni1EDF
ENCODING 7903
SWIDTH 497 0
DWIDTH 10 0
BBX 9 22 1 0
BITMAP
3C00
3C00
0E00
0C00
1C00
0380
0300
3F00
7E00
FF00
E700
E700
E700
E700
E700
E700
E700
E700
E700
FF00
FF00
3C00
ENDCHAR
STARTCHAR uni1EE0
ENCODING 7904
SWIDTH 490 0
DWIDTH 10 0
BBX 8 23 1 0
BITMAP
72
FF
FE
4C
03
03
3F
FE
FF
E7
E7
E7
E7
E7
E7
E7
E7
E7
E7
E7
FF
FE
3C
ENDCHAR
STARTCHAR uni1EE1
ENCODING 7905
SWIDTH 497 0
DWIDTH 10 0
BBX 9 21 1 0
BITMAP
7200
7F00
FE00
4E00
0380
0300
3F00
7E00
FF00
E700
E700
E700
E700
E700
E700
E700
E700
E700
FF00
FF00
3C00
ENDCHAR
STARTCHAR uni1EE2
ENCODING 7906
SWIDTH 490 0
DWIDTH 10 0
BBX 8 23 1 -4
BITMAP
03
03
3F
FE
FF
E7
E7
E7
E7
E7
E7
E7
E7
E7
E7
E7
FF
FE
3C
00
3C
3C
3C
ENDCHAR
STARTCHAR uni1EE3
ENCODING 7907
SWIDTH 497 0
DWIDTH 10 0
BBX 9 21 1 -4
BITMAP
0380
0300
3F00
7E00
FF00
E700
E700
E700
E700
E700
E700
E700
E700
E700
FF00
FF00
3C00
0000
3C00
3C00
3C00
ENDCHAR
STARTCHAR uni1EE4
ENCODING 7908
SWIDTH 474 0
DWIDTH 9 0
BBX 8 21 1 -4
BITMAP
E7
E7
E7
E7
E7
E7
E7
E7
E7
E7
E7
E7
E7
E7
FF
FE
7C
00
3C
3C
3C
ENDCHAR
STARTCHAR uni1EE5
ENCODING 7909
SWIDTH 499 0
DWIDTH 10 0
BBX 8 19 1 -4
BITMAP
E7
E7
E7
E7
E7
E7
E7
E7
E7
E7
E7
E7
FF
FF
77
00
1C
1C
1C
ENDCHAR
STARTCHAR uni1EE6
ENCODING 7910
SWIDTH 474 0
DWIDTH 9 0
BBX 8 24 1 0
BITMAP
38
3C
0C
1C
38
00
00
E7
E7
E7
E7
E7
E7
E7
E7
E7
E7
E7
E7
E7
E7
FF
FE
7C
ENDCHAR
STARTCHAR uni1EE7
ENCODING 7911
SWIDTH 499 0
DWIDTH 10 0
BBX 8 21 1 0
BITMAP
3C
3E
0E
0C
1C
00
E7
E7
E7
E7
E7
E7
E7
E7
E7
E7
E7
E7
FF
FF
77
ENDCHAR
STARTCHAR uni1EE8
ENCODING 7912
SWIDTH 569 0
DWIDTH 11 0
BBX 10 22 1 0
BITMAP
0400
3C00
7C00
61C0
01C0
E7C0
E780
E700
E700
E700
E700
E700
E700
E700
E700
E700
E700
E700
E700
FF00
FE00
7C00
ENDCHAR
STARTCHAR uni1EE9
ENCODING 7913
SWIDTH 570 0
DWIDTH 11 0
BBX 10 20 1 0
BITMAP
0200
0C00
3C00
3CC0
40C0
E7C0
E780
E700
E700
E700
E700
E700
E700
E700
E700
E700
E700
FF00
FF00
7700
ENDCHAR
STARTCHAR uni1EEA
ENCODING 7914
SWIDTH 569 0
DWIDTH 11 0
BBX 10 22 1 0
BITMAP
4000
7800
7C00
0DC0
01C0
E7C0
E780
E700
E700
E700
E700
E700
E700
E700
E700
E700
E700
E700
E700
FF00
FE00
7C00
ENDCHAR
STARTCHAR uni1EEB
ENCODING 7915
SWIDTH 570 0
DWIDTH 11 0
BBX 10 20 1 0
BITMAP
4000
3000
3C00
3CC0
04C0
E7C0
E780
E700
E700
E700
E700
E700
E700
E700
E700
E700
E700
FF00
FF00
7700
ENDCHAR
STARTCHAR uni1EEC
ENCODING 7916
SWIDTH 569 0
DWIDTH 11 0
BBX 10 24 1 0
BITMAP
3800
3C00
0C00
1C00
3800
01C0
01C0
E7C0
E780
E700
E700
E700
E700
E700
E700
E700
E700
E700
E700
E700
E700
FF00
FE00
7C00
ENDCHAR
STARTCHAR uni1EED
ENCODING 7917
SWIDTH 570 0
DWIDTH 11 0
BBX 10 21 1 0
BITMAP
3C00
3E00
0E00
0C00
1CC0
00C0
E7C0
E780
E700
E700
E700
E700
E700
E700
E700
E700
E700
E700
FF00
FF00
7700
ENDCHAR
STARTCHAR uni1EEE
ENCODING 7918
SWIDTH 569 0
DWIDTH 11 0
BBX 10 22 1 0
BITMAP
6200
FF00
FE00
4DC0
01C0
E7C0
E780
E700
E700
E700
E700
E700
E700
E700
E700
E700
E700
E700
E700
FF00
FE00
7C00
ENDCHAR
STARTCHAR uni1EEF
ENCODING 7919
SWIDTH 570 0
DWIDTH 11 0
BBX 10 20 1 0
BITMAP
7200
7F00
FF00
4EC0
00C0
E7C0
E780
E700
E700
E700
E700
E700
E700
E700
E700
E700
E700
FF00
FF00
7700
ENDCHAR
STARTCHAR uni1EF0
ENCODING 7920
SWIDTH 569 0
DWIDTH 11 0
BBX 10 23 1 -4
BITMAP
01C0
01C0
E7C0
E780
E700
E700
E700
E700
E700
E700
E700
E700
E700
E700
E700
E700
FF00
FE00
7C00
0000
3C00
3C00
3C00
ENDCHAR
STARTCHAR uni1EF1
ENCODING 7921
SWIDTH 570 0
DWIDTH 11 0
BBX 10 21 1 -4
BITMAP
00C0
00C0
E7C0
E780
E700
E700
E700
E700
E700
E700
E700
E700
E700
E700
FF00
FF00
7700
0000
1C00
1C00
1C00
ENDCHAR
STARTCHAR Ygrave
ENCODING 7922
SWIDTH 446 0
DWIDTH 9 0
BBX 9 23 0 0
BITMAP
2000
3800
3E00
3E00
0200
0000
F780
F700
7700
7700
7700
7600
3E00
3E00
3E00
3E00
1C00
1C00
1C00
1C00
1C00
1C00
1C00
ENDCHAR
STARTCHAR ygrave
ENCODING 7923
SWIDTH 461 0
DWIDTH 9 0
BBX 9 22 0 -2
BITMAP
2000
3800
3E00
3E00
0200
F380
F780
7780
7700
7700
7700
7700
7700
3600
3600
3600
3E00
3E00
3E00
3C00
FC00
FC00
ENDCHAR
STARTCHAR uni1EF4
ENCODING 7924
SWIDTH 446 0
DWIDTH 9 0
BBX 9 21 0 -4
BITMAP
F780
F700
7700
7700
7700
7600
3E00
3E00
3E00
3E00
1C00
1C00
1C00
1C00
1C00
1C00
1C00
0000
1C00
1C00
1C00
ENDCHAR
STARTCHAR uni1EF5
ENCODING 7925
SWIDTH 461 0
DWIDTH 9 0
BBX 9 21 0 -6
BITMAP
F380
F780
7780
7700
7700
7700
7700
7700
3600
3600
3600
3E00
3E00
3E00
3C00
FC00
FC00
0000
1C00
1C00
1C00
ENDCHAR
STARTCHAR uni1EF6
ENCODING 7926
SWIDTH 446 0
DWIDTH 9 0
BBX 9 24 0 0
BITMAP
3C00
3E00
0E00
0E00
1C00
0000
0000
F780
F700
7700
7700
7700
7600
3E00
3E00
3E00
3E00
1C00
1C00
1C00
1C00
1C00
1C00
1C00
ENDCHAR
STARTCHAR uni1EF7
ENCODING 7927
SWIDTH 461 0
DWIDTH 9 0
BBX 9 23 0 -2
BITMAP
1C00
1E00
0600
0600
0C00
0000
F380
F780
7780
7700
7700
7700
7700
7700
3600
3600
3600
3E00
3E00
3E00
3C00
FC00
FC00
ENDCHAR
STARTCHAR uni1EF8
ENCODING 7928
SWIDTH 446 0
DWIDTH 9 0
BBX 9 23 0 0
BITMAP
3200
7F80
FF00
4E00
0000
0000
F780
F700
7700
7700
7700
7600
3E00
3E00
3E00
3E00
1C00
1C00
1C00
1C00
1C00
1C00
1C00
ENDCHAR
STARTCHAR uni1EF9
ENCODING 7929
SWIDTH 461 0
DWIDTH 9 0
BBX 9 22 0 -2
BITMAP
3100
7F80
7F00
4E00
0000
F380
F780
7780
7700
7700
7700
7700
7700
3600
3600
3600
3E00
3E00
3E00
3C00
FC00
FC00
ENDCHAR
STARTCHAR endash
ENCODING 8211
SWIDTH 311 0
DWIDTH 6 0
BBX 5 3 1 5
BITMAP
F8
F8
F8
ENDCHAR
STARTCHAR emdash
ENCODING 8212
SWIDTH 563 0
DWIDTH 11 0
BBX 10 3 1 5
BITMAP
FFC0
FFC0
FFC0
ENDCHAR
STARTCHAR quoteleft
ENCODING 8216
SWIDTH 235 0
DWIDTH 5 0
BBX 3 5 1 12
BITMAP
E0
C0
E0
E0
E0
ENDCHAR
STARTCHAR quoteright
ENCODING 8217
SWIDTH 232 0
DWIDTH 5 0
BBX 4 5 0 13
BITMAP
F0
F0
F0
30
60
ENDCHAR
STARTCHAR quotesinglbase
ENCODING 8218
SWIDTH 236 0
DWIDTH 5 0
BBX 3 5 1 -2
BITMAP
E0
E0
E0
60
C0
ENDCHAR
STARTCHAR quotedblleft
ENCODING 8220
SWIDTH 464 0
DWIDTH 9 0
BBX 8 5 1 12
BITMAP
E6
CE
EF
EF
EF
ENDCHAR
STARTCHAR quotedblright
ENCODING 8221
SWIDTH 463 0
DWIDTH 9 0
BBX 9 5 0 12
BITMAP
F780
F780
F780
3300
6300
ENDCHAR
STARTCHAR quotedblbase
ENCODING 8222
SWIDTH 467 0
DWIDTH 9 0
BBX 8 5 1 -2
BITMAP
EF
EF
EF
67
C6
ENDCHAR
STARTCHAR dagger
ENCODING 8224
SWIDTH 385 0
DWIDTH 8 0
BBX 7 16 0 0
BITMAP
3C
3C
3C
FE
FE
FE
3C
3C
3C
3C
3C
3C
3C
3C
3C
3C
ENDCHAR
STARTCHAR daggerdbl
ENCODING 8225
SWIDTH 394 0
DWIDTH 8 0
BBX 8 16 0 0
BITMAP
3C
3C
3C
3C
FF
FF
FF
3C
3C
3C
FF
FF
FF
3C
3C
3C
ENDCHAR
STARTCHAR bullet
ENCODING 8226
SWIDTH 352 0
DWIDTH 7 0
BBX 7 7 0 4
BITMAP
38
7C
7C
FE
7C
7C
38
ENDCHAR
STARTCHAR ellipsis
ENCODING 8230
SWIDTH 708 0
DWIDTH 14 0
BBX 13 3 1 0
BITMAP
EF78
EF78
EF78
ENDCHAR
STARTCHAR perthousand
ENCODING 8240
SWIDTH 1480 0
DWIDTH 30 0
BBX 29 18 0 0
BITMAP
000E0000
3C1C0000
7E1C0000
7F1C0000
E73C0000
E7380000
E739E1F0
E73BF3F8
E777FBF8
E7773B38
7F773B38
7EF73B38
1CE73B38
00E73B38
01E73B38
01C7F3F8
01C3F3F0
03C1E1E0
ENDCHAR
STARTCHAR guilsinglleft
ENCODING 8249
SWIDTH 296 0
DWIDTH 6 0
BBX 5 9 0 3
BITMAP
08
38
F8
F8
C0
F0
F8
38
08
ENDCHAR
STARTCHAR guilsinglright
ENCODING 8250
SWIDTH 296 0
DWIDTH 6 0
BBX 5 9 1 3
BITMAP
80
E0
F8
F8
38
F8
F8
E0
80
ENDCHAR
STARTCHAR fraction
ENCODING 8260
SWIDTH 226 0
DWIDTH 5 0
BBX 8 18 -2 0
BITMAP
03
07
07
06
0E
0C
0C
1C
18
18
38
30
30
70
60
60
40
C0
ENDCHAR
STARTCHAR uni2074
ENCODING 8308
SWIDTH 306 0
DWIDTH 6 0
BBX 6 9 0 8
BITMAP
38
38
78
78
78
58
FC
FC
18
ENDCHAR
STARTCHAR colonmonetary
ENCODING 8353
SWIDTH 509 0
DWIDTH 10 0
BBX 8 18 1 -1
BITMAP
0A
3E
7E
EF
F7
F7
F7
F4
F8
E8
EF
EF
EF
F7
F7
7E
7C
70
ENDCHAR
STARTCHAR franc
ENCODING 8355
SWIDTH 508 0
DWIDTH 10 0
BBX 8 16 1 0
BITMAP
7F
7F
7F
78
78
78
7F
7F
7F
78
78
FE
FE
78
78
78
ENDCHAR
STARTCHAR lira
ENCODING 8356
SWIDTH 474 0
DWIDTH 9 0
BBX 9 16 0 0
BITMAP
0E00
3F00
7F80
7B80
7B80
7800
FF00
FF00
3C00
FF00
FF00
3C00
7800
FF80
FF80
FF80
ENDCHAR
STARTCHAR uni20A6
ENCODING 8358
SWIDTH 511 0
DWIDTH 10 0
BBX 10 16 0 0
BITMAP
7180
7180
7980
7980
7980
FFC0
FFC0
7D80
7D80
FDC0
FFC0
7780
7780
7380
7380
7380
ENDCHAR
STARTCHAR peseta
ENCODING 8359
SWIDTH 1096 0
DWIDTH 22 0
BBX 21 16 1 0
BITMAP
FC7000
FE7000
FE71C0
C6F3F0
C6F3F0
C6F730
C67330
C67380
FE71C0
FC70E0
F87070
C07770
C07738
C07330
C073F0
C071E0
ENDCHAR
STARTCHAR uni20A9
ENCODING 8361
SWIDTH 600 0
DWIDTH 12 0
BBX 12 16 0 0
BITMAP
E670
E670
6660
6660
FFF0
FFF0
6F60
FFF0
FFF0
7FE0
39C0
39C0
39C0
39C0
39C0
39C0
ENDCHAR
STARTCHAR dong
ENCODING 8363
SWIDTH 509 0
DWIDTH 10 0
BBX 8 20 1 -4
BITMAP
07
7F
7F
77
FF
FF
EF
E7
E7
E7
E7
E7
EF
FF
FF
77
00
FF
FF
FF
ENDCHAR
STARTCHAR Euro
ENCODING 8364
SWIDTH 525 0
DWIDTH 11 0
BBX 10 17 0 0
BITMAP
1F00
3F80
3FC0
79C0
7800
FF00
FF00
7800
7800
FF00
FF00
7800
7800
79C0
3FC0
3F80
0F00
ENDCHAR
STARTCHAR uni20AD
ENCODING 8365
SWIDTH 509 0
DWIDTH 10 0
BBX 8 16 1 0
BITMAP
67
67
66
6E
6E
6C
FF
FF
6C
6E
6E
6E
66
67
67
67
ENDCHAR
STARTCHAR uni20B1
ENCODING 8369
SWIDTH 509 0
DWIDTH 10 0
BBX 10 16 0 0
BITMAP
7E00
7F00
7F00
7380
FFC0
7380
FFC0
7380
7F00
7F00
7E00
7000
7000
7000
7000
7000
ENDCHAR
STARTCHAR uni20B2
ENCODING 8370
SWIDTH 508 0
DWIDTH 10 0
BBX 8 19 1 -2
BITMAP
18
18
7E
7E
E7
E7
E7
E0
E7
E7
E7
E7
E7
E7
E7
7F
7F
18
18
ENDCHAR
STARTCHAR uni20B5
ENCODING 8373
SWIDTH 481 0
DWIDTH 10 0
BBX 9 18 0 -2
BITMAP
0C00
0C00
3F00
7F80
7380
7380
F380
F380
F000
F000
F380
F380
F380
7380
7F80
3F00
1C00
0C00
ENDCHAR
STARTCHAR uni20B9
ENCODING 8377
SWIDTH 509 0
DWIDTH 10 0
BBX 8 16 1 0
BITMAP
FF
FF
1E
0E
FF
FF
0E
FE
FC
E0
70
30
38
1C
0C
0E
ENDCHAR
STARTCHAR uni20BA
ENCODING 8378
SWIDTH 507 0
DWIDTH 10 0
BBX 8 16 1 0
BITMAP
60
60
60
66
7E
F0
E6
7E
F8
E3
63
63
63
67
7F
7E
ENDCHAR
STARTCHAR uni20BC
ENCODING 8380
SWIDTH 509 0
DWIDTH 10 0
BBX 10 16 0 0
BITMAP
0C00
0C00
0C00
1E00
7F80
7F80
EDC0
EDC0
EDC0
EDC0
EDC0
EDC0
EDC0
EDC0
EDC0
EDC0
ENDCHAR
STARTCHAR uni20BD
ENCODING 8381
SWIDTH 293 0
DWIDTH 6 0
BBX 8 16 1 0
BITMAP
7E
7F
7F
63
63
63
63
FF
FE
FC
60
FC
FC
FC
60
60
ENDCHAR
STARTCHAR uni2113
ENCODING 8467
SWIDTH 248 0
DWIDTH 5 0
BBX 3 18 1 0
BITMAP
E0
E0
E0
E0
E0
E0
E0
E0
E0
E0
E0
E0
E0
E0
E0
E0
E0
E0
ENDCHAR
STARTCHAR uni2116
ENCODING 8470
SWIDTH 944 0
DWIDTH 19 0
BBX 17 18 1 0
BITMAP
E71E00
E73F00
E77F80
F77380
F77380
F77380
F77380
FF7380
FF7380
FF7F80
FF3F00
FF0E00
FF7F80
EF7F80
EF7F80
EF0000
EF0000
E70000
ENDCHAR
STARTCHAR trademark
ENCODING 8482
SWIDTH 925 0
DWIDTH 19 0
BBX 17 12 0 5
BITMAP
FDE780
FDF780
39F780
39F780
39F780
39FD80
39FD80
39DD80
39DD80
39DD80
39DD80
39DD80
ENDCHAR
STARTCHAR uni2126
ENCODING 8486
SWIDTH 484 0
DWIDTH 10 0
BBX 9 16 0 0
BITMAP
1E00
7F00
7F80
7380
7380
7380
7380
7380
7380
7380
7380
7380
7380
3700
FF80
FF80
ENDCHAR
STARTCHAR estimated
ENCODING 8494
SWIDTH 488 0
DWIDTH 10 0
BBX 8 15 1 0
BITMAP
3C
E7
E7
E7
E7
E7
E7
FF
E0
E7
E7
E7
E7
E6
7E
ENDCHAR
STARTCHAR partialdiff
ENCODING 8706
SWIDTH 523 0
DWIDTH 10 0
BBX 10 17 0 0
BITMAP
0600
3F80
1FC0
03C0
03C0
03C0
1FC0
3FC0
7FC0
7BC0
73C0
F3C0
F3C0
F380
7F80
7F00
3E00
ENDCHAR
STARTCHAR emptyset
ENCODING 8709
SWIDTH 677 0
DWIDTH 14 0
BBX 13 13 0 2
BITMAP
0F88
18F8
3030
6078
40D8
C188
C308
C608
4C18
7810
3030
78E0
4F80
ENDCHAR
STARTCHAR uni2206
ENCODING 8710
SWIDTH 450 0
DWIDTH 9 0
BBX 9 17 0 0
BITMAP
3E00
3E00
3E00
3600
3600
3700
7700
7700
7700
7700
7700
7700
7700
7700
7700
FF80
FF80
ENDCHAR
STARTCHAR product
ENCODING 8719
SWIDTH 483 0
DWIDTH 10 0
BBX 8 17 1 0
BITMAP
FF
FF
FF
E7
E7
E7
E7
E7
E7
E7
E7
E7
E7
E7
E7
E7
E7
ENDCHAR
STARTCHAR summation
ENCODING 8721
SWIDTH 415 0
DWIDTH 8 0
BBX 8 17 0 0
BITMAP
FF
FF
7F
70
78
38
3C
3C
3C
3C
38
78
78
70
FF
FF
FF
ENDCHAR
STARTCHAR minus
ENCODING 8722
SWIDTH 311 0
DWIDTH 6 0
BBX 5 2 1 5
BITMAP
F8
F8
ENDCHAR
STARTCHAR uni2215
ENCODING 8725
SWIDTH 392 0
DWIDTH 8 0
BBX 8 18 0 0
BITMAP
0F
0F
0E
0E
1E
1E
1C
1C
3C
3C
38
38
38
78
78
70
70
F0
ENDCHAR
STARTCHAR uni2219
ENCODING 8729
SWIDTH 293 0
DWIDTH 6 0
BBX 4 3 1 7
BITMAP
F0
F0
F0
ENDCHAR
STARTCHAR radical
ENCODING 8730
SWIDTH 692 0
DWIDTH 14 0
BBX 14 15 0 0
BITMAP
07FC
07FC
0700
0700
0700
0700
0700
0700
EE00
6E00
7E00
7E00
3E00
3E00
3C00
ENDCHAR
STARTCHAR infinity
ENCODING 8734
SWIDTH 572 0
DWIDTH 11 0
BBX 11 6 0 4
BITMAP
7BC0
7FE0
E460
7FE0
7BE0
1180
ENDCHAR
STARTCHAR integral
ENCODING 8747
SWIDTH 296 0
DWIDTH 6 0
BBX 6 16 0 0
BITMAP
3C
7C
7C
78
78
78
78
78
78
78
78
78
78
78
F8
F0
ENDCHAR
STARTCHAR approxequal
ENCODING 8776
SWIDTH 493 0
DWIDTH 10 0
BBX 10 9 0 3
BITMAP
1000
7FC0
FF80
4780
0000
3880
7FC0
FF80
0300
ENDCHAR
STARTCHAR notequal
ENCODING 8800
SWIDTH 311 0
DWIDTH 6 0
BBX 5 6 1 5
BITMAP
F8
F8
00
00
F8
F8
ENDCHAR
STARTCHAR lessequal
ENCODING 8804
SWIDTH 323 0
DWIDTH 6 0
BBX 6 14 0 0
BITMAP
04
0C
3C
7C
F8
E0
F0
FC
3C
1C
04
00
7C
7C
ENDCHAR
STARTCHAR greaterequal
ENCODING 8805
SWIDTH 323 0
DWIDTH 6 0
BBX 6 14 0 0
BITMAP
80
E0
F0
FC
3C
0C
3C
7C
F8
E0
80
00
7C
7C
ENDCHAR
STARTCHAR lozenge
ENCODING 9674
SWIDTH 450 0
DWIDTH 9 0
BBX 9 14 0 0
BITMAP
3E00
3E00
7700
7700
7700
6300
E380
E380
6300
7700
7700
7700
3E00
3E00
ENDCHAR
STARTCHAR fi
ENCODING 64257
SWIDTH 523 0
DWIDTH 10 0
BBX 10 19 0 0
BITMAP
03C0
3BC0
7BC0
7800
73C0
FBC0
FBC0
FBC0
7BC0
7BC0
7BC0
7BC0
7BC0
7BC0
7BC0
7BC0
7BC0
7BC0
7BC0
ENDCHAR
STARTCHAR fl
ENCODING 64258
SWIDTH 528 0
DWIDTH 11 0
BBX 10 18 0 0
BITMAP
3BC0
7BC0
7BC0
73C0
FBC0
FBC0
FBC0
7BC0
7BC0
7BC0
7BC0
7BC0
7BC0
7BC0
7BC0
7BC0
7BC0
7BC0
ENDCHAR
STARTCHAR .notdef
ENCODING -1
SWIDTH 263 0
DWIDTH 5 0
BBX 1 1 0 0
BITMAP
00
ENDCHAR
STARTCHAR Iacute_J.loclNLD
ENCODING -1
SWIDTH 693 0
DWIDTH 14 0
BBX 14 23 0 0
BITMAP
0804
301C
F07C
F07C
8040
0000
7038
7038
7038
7038
7038
7038
7038
7038
7038
7738
7738
7738
7738
7738
77F8
73F0
71E0
ENDCHAR
STARTCHAR i.loclTRK
ENCODING -1
SWIDTH 235 0
DWIDTH 5 0
BBX 3 19 1 0
BITMAP
E0
E0
E0
00
E0
E0
E0
E0
E0
E0
E0
E0
E0
E0
E0
E0
E0
E0
E0
ENDCHAR
STARTCHAR iacute_j.loclNLD
ENCODING -1
SWIDTH 502 0
DWIDTH 10 0
BBX 10 22 0 -2
BITMAP
0840
39C0
FFC0
FFC0
8400
7380
7380
7380
7380
7380
7380
7380
7380
7380
7380
7380
7380
7380
7380
7780
0780
0200
ENDCHAR
STARTCHAR f_f
ENCODING -1
SWIDTH 560 0
DWIDTH 11 0
BBX 11 18 0 0
BITMAP
39E0
79E0
79E0
71C0
FBE0
FBE0
FBE0
79C0
79C0
79C0
79C0
79C0
79C0
79C0
79C0
79C0
79C0
79C0
ENDCHAR
STARTCHAR f_f_i
ENCODING -1
SWIDTH 803 0
DWIDTH 16 0
BBX 15 19 0 0
BITMAP
000E
39EE
79EE
79E0
71CE
FBEE
FBEE
FBEE
79CE
79CE
79CE
79CE
79CE
79CE
79CE
79CE
79CE
79CE
79CE
ENDCHAR
STARTCHAR f_f_l
ENCODING -1
SWIDTH 808 0
DWIDTH 16 0
BBX 15 18 0 0
BITMAP
39EE
79EE
79EE
71CE
FBEE
FBEE
FBEE
79CE
79CE
79CE
79CE
79CE
79CE
79CE
79CE
79CE
79CE
79CE
ENDCHAR
STARTCHAR periodcentered.loclCAT.case
ENCODING -1
SWIDTH 0 0
DWIDTH 0 0
BBX 4 3 -2 7
BITMAP
F0
F0
F0
ENDCHAR
STARTCHAR periodcentered.loclCAT
ENCODING -1
SWIDTH 0 0
DWIDTH 0 0
BBX 4 3 -2 7
BITMAP
F0
F0
F0
ENDCHAR
STARTCHAR caroncomb.alt
ENCODING -1
SWIDTH 0 0
DWIDTH 0 0
BBX 4 5 0 13
BITMAP
F0
F0
F0
60
60
ENDCHAR
STARTCHAR uni0326.alt
ENCODING -1
SWIDTH 0 0
DWIDTH 0 0
BBX 4 6 -5 17
BITMAP
60
60
60
F0
F0
F0
ENDCHAR
STARTCHAR uni0308.case
ENCODING -1
SWIDTH 0 0
DWIDTH 0 0
BBX 8 3 -4 16
BITMAP
E7
E7
E7
ENDCHAR
STARTCHAR uni0307.case
ENCODING -1
SWIDTH 0 0
DWIDTH 0 0
BBX 4 3 -2 16
BITMAP
F0
F0
F0
ENDCHAR
STARTCHAR gravecomb.case
ENCODING -1
SWIDTH 0 0
DWIDTH 0 0
BBX 4 4 -2 15
BITMAP
80
E0
F0
30
ENDCHAR
STARTCHAR acutecomb.case
ENCODING -1
SWIDTH 0 0
DWIDTH 0 0
BBX 4 4 -2 15
BITMAP
10
70
F0
C0
ENDCHAR
STARTCHAR uni030B.case
ENCODING -1
SWIDTH 0 0
DWIDTH 0 0
BBX 8 5 -4 16
BITMAP
37
76
6E
6C
D8
ENDCHAR
STARTCHAR uni0302.case
ENCODING -1
SWIDTH 0 0
DWIDTH 0 0
BBX 8 3 -4 16
BITMAP
3C
7E
E7
ENDCHAR
STARTCHAR uni030C.case
ENCODING -1
SWIDTH 0 0
DWIDTH 0 0
BBX 8 4 -4 16
BITMAP
E7
7E
7E
3C
ENDCHAR
STARTCHAR uni0306.case
ENCODING -1
SWIDTH 0 0
DWIDTH 0 0
BBX 8 3 -4 16
BITMAP
E7
FF
3C
ENDCHAR
STARTCHAR uni030A.case
ENCODING -1
SWIDTH 0 0
DWIDTH 0 0
BBX 6 7 -3 15
BITMAP
78
FC
CC
CC
CC
FC
78
ENDCHAR
STARTCHAR tildecomb.case
ENCODING -1
SWIDTH 0 0
DWIDTH 0 0
BBX 8 4 -4 15
BITMAP
72
7F
FE
4E
ENDCHAR
STARTCHAR hookabovecomb.case
ENCODING -1
SWIDTH 0 0
DWIDTH 0 0
BBX 4 5 -2 16
BITMAP
E0
F0
30
30
60
ENDCHAR
STARTCHAR uni030F.case
ENCODING -1
SWIDTH 0 0
DWIDTH 0 0
BBX 7 5 -5 16
BITMAP
64
FC
6E
36
3E
ENDCHAR
STARTCHAR uni0311.case
ENCODING -1
SWIDTH 0 0
DWIDTH 0 0
BBX 8 4 -4 16
BITMAP
3C
7E
7E
E7
ENDCHAR
STARTCHAR uni031B.case
ENCODING -1
SWIDTH 0 0
DWIDTH 0 0
BBX 5 3 0 15
BITMAP
38
F0
E0
ENDCHAR
STARTCHAR uni03060301
ENCODING -1
SWIDTH 0 0
DWIDTH 0 0
BBX 8 7 -4 16
BITMAP
0C
3C
3C
00
E7
FE
3C
ENDCHAR
STARTCHAR uni03060300
ENCODING -1
SWIDTH 0 0
DWIDTH 0 0
BBX 8 7 -4 16
BITMAP
30
3C
3C
00
E7
FE
3C
ENDCHAR
STARTCHAR uni03060309
ENCODING -1
SWIDTH 0 0
DWIDTH 0 0
BBX 8 9 -4 16
BITMAP
38
3C
0C
0C
1C
10
E7
FE
3C
ENDCHAR
STARTCHAR uni03060303
ENCODING -1
SWIDTH 0 0
DWIDTH 0 0
BBX 8 7 -4 16
BITMAP
72
FF
FE
06
E7
FE
3C
ENDCHAR
STARTCHAR uni03020301
ENCODING -1
SWIDTH 0 0
DWIDTH 0 0
BBX 12 5 -4 16
BITMAP
00F0
00C0
3DC0
7E00
E700
ENDCHAR
STARTCHAR uni03020300
ENCODING -1
SWIDTH 0 0
DWIDTH 0 0
BBX 10 5 -4 16
BITMAP
0780
0180
3DC0
7E00
E700
ENDCHAR
STARTCHAR uni03020309
ENCODING -1
SWIDTH 0 0
DWIDTH 0 0
BBX 10 7 -4 16
BITMAP
0380
03C0
00C0
01C0
3F80
7E00
E700
ENDCHAR
STARTCHAR uni03020303
ENCODING -1
SWIDTH 0 0
DWIDTH 0 0
BBX 8 7 -4 16
BITMAP
72
FF
FE
06
3C
7E
E7
ENDCHAR
STARTCHAR uni03060301.case
ENCODING -1
SWIDTH 0 0
DWIDTH 0 0
BBX 6 6 -3 18
BITMAP
08
38
70
CC
FC
78
ENDCHAR
STARTCHAR uni03060300.case
ENCODING -1
SWIDTH 0 0
DWIDTH 0 0
BBX 6 6 -3 18
BITMAP
40
70
38
CC
FC
78
ENDCHAR
STARTCHAR uni03060309.case
ENCODING -1
SWIDTH 0 0
DWIDTH 0 0
BBX 6 6 -3 18
BITMAP
30
18
30
CC
FC
78
ENDCHAR
STARTCHAR uni03060303.case
ENCODING -1
SWIDTH 0 0
DWIDTH 0 0
BBX 6 6 -3 18
BITMAP
64
FC
58
CC
FC
78
ENDCHAR
STARTCHAR uni03020301.case
ENCODING -1
SWIDTH 0 0
DWIDTH 0 0
BBX 11 4 -4 18
BITMAP
00E0
3DC0
3C00
E700
ENDCHAR
STARTCHAR uni03020300.case
ENCODING -1
SWIDTH 0 0
DWIDTH 0 0
BBX 10 3 -4 19
BITMAP
0380
3DC0
FF00
ENDCHAR
STARTCHAR uni03020309.case
ENCODING -1
SWIDTH 0 0
DWIDTH 0 0
BBX 9 4 -4 18
BITMAP
0180
3C80
3D00
E700
ENDCHAR
STARTCHAR uni03020303.case
ENCODING -1
SWIDTH 0 0
DWIDTH 0 0
BBX 8 6 -4 18
BITMAP
34
7E
4C
3C
3C
E7
ENDCHAR
ENDFONT
